<svg xmlns="http://www.w3.org/2000/svg" version="1.1" xmlns:xlink="http://www.w3.org/1999/xlink"
    xmlns:svgjs="http://svgjs.com/svgjs" width="512" height="512" x="0" y="0" viewBox="0 0 384.668 384.668"
    style="enable-background:new 0 0 512 512" xml:space="preserve">
    <g transform="matrix(0.83,0,0,0.83,32.69686294555666,32.69694854736329)">
        <path
            d="M335.034 384.668c6.825 0 12.409-5.584 12.409-12.409s-5.584-12.409-12.409-12.409h-24.817v-66.51a43.652 43.652 0 0 0-14.89-32.821l-61.795-54.04c-4.157-3.599-6.39-8.624-6.39-14.146s2.296-10.547 6.39-14.146l61.795-54.04c9.493-8.252 14.89-20.226 14.89-32.821v-66.51h24.817c6.825 0 12.409-5.584 12.409-12.409S341.858 0 335.034 0H49.635C42.81 0 37.226 5.584 37.226 12.409s5.584 12.409 12.409 12.409h24.817v72.591c0 12.657 5.46 24.693 15.077 32.945l55.094 47.773c4.157 3.599 6.515 8.686 6.515 14.208s-2.296 10.609-6.515 14.208l-55.094 47.711c-9.617 8.314-15.077 20.35-15.077 33.007v72.591H49.635c-6.825 0-12.409 5.584-12.409 12.409s5.584 12.409 12.409 12.409h285.399zm-49.635-24.817H99.269V287.26c0-5.46 2.358-10.609 6.453-14.208l55.094-47.711c9.555-8.314 15.077-20.288 15.077-32.945s-5.46-24.693-15.077-32.945l-55.094-47.773a19.02 19.02 0 0 1-6.453-14.27V24.817h186.13v66.51c0 5.398-2.358 10.547-6.453 14.146l-61.795 54.04c-9.431 8.252-14.89 20.226-14.89 32.821s5.46 24.569 14.89 32.821l61.857 54.04a18.796 18.796 0 0 1 6.39 14.146v66.51z"
            fill="#ffffff" data-original="#000000"></path>
        <path
            d="M207.907 230.677c-6.639-5.832-12.098-13.029-15.077-21.343-1.923-5.336-2.73-10.733-2.854-16.069v-.931h-1.799v.869c-.248 14.146-6.39 27.485-17.062 36.792l-55.094 47.773c-2.73 2.42-4.343 5.832-4.343 9.493v54.66a5.534 5.534 0 0 0 5.522 5.522h150.269a5.534 5.534 0 0 0 5.522-5.522v-48.58c0-3.661-1.551-7.073-4.281-9.493z"
            fill="#ffffff" data-original="#000000"></path>
    </g>
</svg>