<?xml version="1.0"?>
<svg xmlns="http://www.w3.org/2000/svg" xmlns:xlink="http://www.w3.org/1999/xlink" xmlns:svgjs="http://svgjs.com/svgjs" version="1.1" width="512" height="512" x="0" y="0" viewBox="0 0 512 512" style="enable-background:new 0 0 512 512" xml:space="preserve" class=""><g><path xmlns="http://www.w3.org/2000/svg" d="m511.386 281.608-38.714-219.559c-3.418-19.384-20.275-33.022-39.299-33.022-2.303 0-339.026 59.161-339.026 59.161-21.73 3.832-36.24 24.554-32.408 46.284l3.732 21.167h303.894c38.553 0 69.918 31.365 69.918 69.918v28.017 67.97 13.311l39.495-6.964c21.73-3.831 36.24-24.553 32.408-46.283z" fill="#ffffff" data-original="#000000" class=""/><path xmlns="http://www.w3.org/2000/svg" d="m409.518 351.509h-409.518v91.511c0 22.065 17.888 39.953 39.953 39.953h329.612c22.065 0 39.953-17.888 39.953-39.953zm-290.571 95.468h-67.97c-8.274 0-14.982-6.708-14.982-14.982s6.708-14.982 14.982-14.982h67.97c8.274 0 14.982 6.708 14.982 14.982s-6.707 14.982-14.982 14.982z" fill="#ffffff" data-original="#000000" class=""/><path xmlns="http://www.w3.org/2000/svg" d="m.049 223.61h409.419c-1.016-21.161-18.492-38.005-39.904-38.005h-329.611c-21.412 0-38.888 16.844-39.904 38.005z" fill="#ffffff" data-original="#000000" class=""/><path xmlns="http://www.w3.org/2000/svg" d="m0 253.574h409.518v67.97h-409.518z" fill="#ffffff" data-original="#000000" class=""/></g></svg>
