<?xml version="1.0" encoding="UTF-8"?><svg id="Layer_2" xmlns="http://www.w3.org/2000/svg" viewBox="0 0 2228.4 675"><defs><style>.cls-1{fill:#fff;}.cls-2{fill:#8430fc;}.cls-2,.cls-3,.cls-4{fill-rule:evenodd;}.cls-3,.cls-5{fill:#7303fc;}.cls-4{fill:#5c02ca;}</style></defs><g id="Layer_1-2"><g><polygon class="cls-2" points="0 342 225 342 558 675 333.1 675 0 342"/><polygon class="cls-3" points="891 342 666 342 499.4 508.1 724.4 508.1 891 342"/><polygon class="cls-3" points="391.6 166.9 166.6 166.9 0 333 225 333 391.6 166.9"/><polygon class="cls-4" points="332.9 0 557.8 0 891.1 333 665.9 333 332.9 0"/><rect class="cls-5" x="363.1" y="187.7" width="165" height="299.8" transform="translate(-108.2 414) rotate(-45)"/></g></g><g id="H-Extra-Bold"><g><path class="cls-1" d="M1355.7,500.6c-39.4,41-90,61.5-151.7,61.5s-112.5-20.5-151.1-61.5c-39-41.4-58.5-96.2-58.5-164.3s19.5-122.1,58.5-163.1c39-40.2,89.4-60.3,151.1-60.3s112.9,20.1,152.3,60.3c39,41,58.5,95.4,58.5,163.1s-19.7,122.9-59.1,164.3Zm-223.4-65.7c17.1,23.9,41,35.8,71.7,35.8s55-11.9,72.9-35.8c17.5-24.3,26.3-57.1,26.3-98.6s-8.9-73.3-26.6-96.8c-17.7-23.5-41.9-35.2-72.6-35.2s-54.7,11.7-72,35c-17.3,23.3-26,55.7-26,97.1s8.8,75.1,26.3,98.6Z"/><path class="cls-1" d="M1475.7,123h195.9c46.2,0,83.4,12.9,111.7,38.8,27.5,26.3,41.2,60.9,41.2,103.9s-13.9,78.9-41.8,105.1c-27.9,26.3-66.7,39.4-116.5,39.4h-78.9v138h-111.7V123Zm111.7,198.9h62.1c43.4,0,65.1-18.3,65.1-55s-5.3-30.9-15.8-40c-10.6-9.2-25.6-13.7-45.1-13.7h-66.3v108.7Z"/><path class="cls-1" d="M2221.8,204.9l-213.9,247.9h220.4v95.6h-364.4v-89.6l209.7-240.1h-195.3V123h343.5v81.8Z"/></g></g></svg>