<svg xmlns="http://www.w3.org/2000/svg" version="1.1" xmlns:xlink="http://www.w3.org/1999/xlink" width="512" height="512" x="0" y="0" viewBox="0 0 512 512" style="enable-background:new 0 0 512 512" xml:space="preserve" class=""><g><path d="M357.993 327.992c0-94.715-76.781-171.497-171.497-171.497C91.782 156.496 15 233.277 15 327.992c0 84.144 60.602 154.129 140.539 168.703l-.322-143.8h-37.162l68.428-106.416 68.453 106.416h-39.549L215.71 497c80.798-13.868 142.283-84.253 142.283-169.008z" style="stroke-width:30;stroke-linecap:round;stroke-linejoin:round;stroke-miterlimit:10;" fill="none" stroke="#ffffff" stroke-width="30" stroke-linecap="round" stroke-linejoin="round" stroke-miterlimit="10" data-original="#000000" opacity="1" class=""></path><path d="m268.951 177.586-11.888-18.482h39.549L296.29 15c-72.779 12.492-129.889 70.839-140.508 144.239M356.208 352.763C436.271 338.291 497 268.242 497 184.008c0-84.144-60.602-154.129-140.539-168.703l.322 143.8h37.162l-56.369 87.663" style="stroke-width:30;stroke-linecap:round;stroke-linejoin:round;stroke-miterlimit:10;" fill="none" stroke="#ffffff" stroke-width="30" stroke-linecap="round" stroke-linejoin="round" stroke-miterlimit="10" data-original="#000000" opacity="1" class=""></path></g></svg>