<?xml version="1.0" encoding="UTF-8" standalone="no"?>
<!-- Created with Inkscape (http://www.inkscape.org/) -->

<svg version="1.1" id="svg1260" xml:space="preserve" width="682.66669" height="682.66669"
  viewBox="0 0 682.66669 682.66669" xmlns="http://www.w3.org/2000/svg" xmlns:svg="http://www.w3.org/2000/svg">
  <defs id="defs1264">
    <clipPath clipPathUnits="userSpaceOnUse" id="clipPath1274">
      <path d="M 0,512 H 512 V 0 H 0 Z"  id="path1272" />
    </clipPath>
  </defs>
  <g id="g1266" transform="matrix(1.3333333,0,0,-1.3333333,0,682.66667)">
    <g id="g1268">
      <g id="g1270" clip-path="url(#clipPath1274)">
        <g id="g1276" transform="translate(387.814,241.2197)">
          <path
            d="m 0,0 c 0,51.753 35.557,78.219 51.481,90.232 -33.369,50.11 -93.293,47.594 -95.128,47.594 -36.369,0 -66.82,-21.89 -83.442,-21.89 -19.588,0 -53.31,20.793 -79.711,20.793 -3.173,0 -119.49,-3.758 -119.49,-142.74 0,-78.601 62.975,-219.86 124.315,-220.208 30.671,-0.175 56.819,19.672 80.086,19.672 36.45,0 47.466,-19.892 78.137,-19.892 61.341,0 107.414,125.7 107.414,126.565 C 63.662,-94.638 0,-76.382 0,0 Z"
            style="fill:none;stroke:#fafafa;stroke-width:30;stroke-linecap:round;stroke-linejoin:round;stroke-miterlimit:10;stroke-dasharray:none;stroke-opacity:1"
            id="path1278" />
        </g>
        <g id="g1280" transform="translate(351.8452,496.9995)">
          <path d="M 0,0 C 1.888,-68.076 -46.797,-115.304 -95.425,-112.342 -103.438,-58.016 -46.803,0 0,0 Z"
            style="fill:none;stroke:#fafafa;stroke-width:30;stroke-linecap:round;stroke-linejoin:round;stroke-miterlimit:10;stroke-dasharray:none;stroke-opacity:1"
            id="path1282" />
        </g>
      </g>
    </g>
  </g>
</svg>