<?xml version="1.0" encoding="UTF-8"?>
<svg id="Layer_2" xmlns="http://www.w3.org/2000/svg" viewBox="0 0 670.6 178.8">
  <defs>
    <style>
      .cls-1 {
        fill: #fff;
      }
    </style>
  </defs>
  <g id="Layer_1-2" data-name="Layer_1">
    <g id="Layer_1-3" data-name="Layer_1">
      <path class="cls-1" d="M76.7,19.9h8.2l.5.2v18.5l5.5-.2v-18l.2-.2,7.5-.2,1.8.2.2.5-.2,18,2.5.2,7.8,1.8,4.5,1.5,1.2,1v9.2l-.2,2.5-1.2-.2-4.8-2-5.8-1.8-6-1-2.8-.2h-5.8l-4.5.5-5.8,1.2-3.8,1.2-4.8,2.5-4,3-2,1.8-1.2,1.5h-.5l-.5,1-2,2.8-2,3.2-2.2,5-1.8,6.2-.8,5.2-.2,3.5v5l.5,5,1.5,6.5,1.5,4.2,2.5,4.8,3,4,2.8,3,2.5,2.2,2.8,1.8,4,2,5.5,2,5.5.8h8l6-.8,4.5-1,5-1.8,5.8-2.5h1.2l.2,5.8v4.2l-.5,1.2-2,1.2-4.2,1.5-4.8,1.2-3.8.8h-.8v18.5l-.2,1-4.2.2h-4.5l-.5-.5-.5-18.5h-5.2l.2,18.5-.2.2-4.5.2h-4.2l-.8-.8-.2-19-2-.8-4.5-1.5-5.2-2.5-4-2.8-2.5-2-2.5-2.2-2.2-2.5-2.8-3.8-2.8-4.5-2.8-5.8-1.5-5-1.2-6-.5-4.2v-10.2l.8-5.8,1.2-5.2,1.5-4.8,2-4.5,1.5-3,2.5-3.8,2.2-2.8.8-1h.5l.5-1h.5l.5-1h.5l.5-1,2-1.8,3.5-2.8,4.5-2.8,5.8-2.8,3-1,.2-.5.2-20.5.8-.2.1.8Z"/>
      <path class="cls-1" d="M82.9.4h14.8l5.8.5,7.2,1.2,6.2,1.5,5,1.5,5,2,4.8,2.2,5.8,3.2,4.8,3,4.8,3.5,4,3.2,5,4.5,2.2,2.2,2.2,2.8,2.8,3.2,3,4.2,2.5,3.8,2.8,4.8,2,3.8,2.8,6.5,2,6,1.8,7,1.2,7,.5,6.2v10.8l-.5,6.5-1.5,7.8-1.5,5.8-2.5,7.2-2,4.5-2,4-1.5,2.8-2.8,4.5-2,2.8-3.2,4.2-2.2,2.8-4,4.2-2.5,2.5-2.8,2.2-2.5,2.2-4,3-5.2,3.5-3.8,2.2-7.5,3.8-4,1.8-6.5,2-7,1.8-7.5,1.2-5.5.5h-14.5l-7.8-1-7-1.5-6.2-1.8-5-1.8-6-2.8-5.8-3-5.2-3.2-4.2-3-3.2-2.5-3.5-3-3.2-3-2.5-2.5-2.2-2.8-3-3.8-3.2-4.5-3-4.8-3.5-6.5-2-4.5-2.2-6.2-2-7.2-1.5-7.8-.5-4-.2-6.5v-3.8l.2-5.5,1.2-8.8,1.5-6.8,2-6.5,2-5,2.2-5,3-5.5,3.5-5.2,2-2.8,1.8-2.2,2.8-3.5,2.2-2.2,1.2-1.5,2-1.8,2.5-2.5,2.8-2.2,3.2-2.5,4.5-3.2,4.5-2.8,3.8-2.2,5.8-2.8,3.8-1.5,4.5-1.5,7-1.8,8.2-1.5,5.2-.5-.5.4ZM86.9,4.9l-8.8.8-6,1-5.2,1.2-6,2-7,3-4,2-4.2,2.2-4.2,2.8-3.8,2.8-3.2,2.8-2.8,2.2-7.2,7.2-2.2,2.8-3,4-2.8,4.2-3,5.2-2.2,4.8-2.5,6.5-1.5,4.8-1.5,6.2-1,6.5-.5,5.2v9.5l1,8.2,1.2,6.5,1.8,6.2,1.8,5,3.2,7,1.8,3,1.5,2.8,2.2,3.5,3,4,2.2,2.8,3.5,3.8,1.5,1.8,2,1.8,2.8,2.5,2.8,2.2,4.5,3.5,4.5,3,4.8,2.8,4,2,4.8,2,7.2,2.2,6.5,1.5,6.2,1,5,.5,4.2.2h5.8l6.8-.5,8-1.2,6.5-1.5,6.5-2.2,6.8-3,6.2-3.2,5.2-3.2,3-2.2,2.8-2.2,2.8-2.5,2-1.8,2.5-2.2,1.8-1.8,1.8-2,2.5-2.8,3.2-4.5,3-4.8,2.5-4.2,2.5-5.2,2.5-6.5,1.8-6,1.5-6.5.8-5.5.5-5.2v-6.5l-1-9.8-1-6-2-7.2-2.2-6.2-3.5-7.2-2.5-4.5-3-4.8-3.5-4.2-3-3.2-2.8-3-1.8-1.8-2-1.8-3-2.8-3.5-2.8-5-3.5-6.2-3.8-5.8-2.8-4.5-1.8-7.8-2.2-9-1.8-6.2-.8-3.2-.2h-7.8l-.4-.1Z"/>
      <path class="cls-1" d="M455.9,42.4h6.2l4.8.5,4,1,4,1.5,4,2,3.2,2,4,3,.2,1-3.8,3.8-1.8,2.2h-.5l-.5,1-1.8,1.5-2.5-1.8-3.5-2-5-2-4-.8h-5.5l-3.5.5-4.5,1.5-3.2,2-3,2.5-2.2,3-2,3.8-1.5,4.5-.8,3.8v6l1,4.2,1.5,4,1.8,2.8,2.2,2.5,2.2,2,3,1.8,3.8,1.2,4.5.8h6.2l3.8-.8,5.2-1.8,2.8-1.5,1-1,.2-1v-11.2l-16.8.2-1-.5-.2-10.5.5-.8h29.2l.5.2v28.5l-1.8,2-3,2.8-3.5,2.5-4.8,2.5-5,1.5-6.2,1-2.5.2h-6.5l-7.2-1.5-4.5-1.5-4-2-2.8-1.8-3.2-2.8-2.2-2.5-1.8-2.5-1.8-2.8-2-5-1.2-4.5-.8-5.2v-6.2l1-6.5,1.2-4.5,2-4.5,1.8-3.2,2-2.8,2.2-2.5,3.2-3,3.8-2.5,5.2-2.5,3.2-1,3.8-.8,2.8-.2.4.2Z"/>
      <path class="cls-1" d="M585.5,63.9h4.5l3.5.5,3.8,1.2,4,2,3.2,2.5,1.8,1.8,2.2,3,1.8,3,1.2,3.8.8,3.5.2,2v5l-1,5.2-1.5,4-2.2,3.8-3.8,4-3,2.2-4,1.8-5.2,1.2-2.5.2h-4.2l-5.2-1-3.2-1.2-2.5-1.5-2.8-2,.2,14v8.5l-.8.5-10.2.2-1.5-.5-.2-1.2v-64.8l.8-.5h10.8l.5.8.2,5,2.2-1.8,1.8-1.5,4-2.2,3.5-1,3-.5h-.2ZM584.5,75.9l-4.2,1-2.5,1.2-2.2,2-1.8,2.8-1.2,3.8-.2,1v3.5l.8,2.8,1,2.2,1.8,2.5,2.2,2,2.2,1.5,2.8.8h4.5l3.2-.5,2.5-1,2.5-1.8,2-2.2,1.2-2.2,1-3.8v-3l-.5-3.5-1.8-3.2-1.8-2.2-2.2-1.8-2.5-1.2-1.8-.5h-5v-.2Z"/>
      <path class="cls-1" d="M90.2,59.6h7.5l9.2,1,4,1,1.2.8v11.8l-.5.2-5.2-2-3.5-.8-4-.5-5-.2-5.2.8-3,1-2.2,1.5-2.8,2.2-2.2,3.2-1.5,3.2-1,4-.2,5.5.5,3.5,1,3.8,1.8,3.5,1.8,2.2,3.2,2.2,3.5,1.2,3.5.8h5.5l3.5-.5.5-.2.2-1.5v-9.8h-11l-1-.2-.2-1.8v-7.8l.2-1.5h26l.2.2.2,21.8v8.2l-1,1-3,1.2-5.2,1.5-6.8,1.2-5.2.5h-4.2l-5.2-.8-5.2-1.5-3.8-1.5-3-1.8-2.5-2-2.5-2.5-2.2-3.2-2-3.8-1.5-4.2-.8-4.2-.2-2.2v-6.2l.8-4.5,1.8-5.2,2.5-4.5,2.5-3.2,2.2-2.5,3-2.5,3.5-2.2,3.5-1.5,4-1.2,3.5-.8,2.2-.2h-.2Z"/>
      <path class="cls-1" d="M249.9,43.4h8.8l3.8.5,4,1.2,4.5,2,3.5,2,3.2,2.2,2.5,2.2.2,1-3,2.8-2,1.8-3,3.2-1,.2-3.2-2.2-3-1.8-4-1.2-2.2-.5-2.8-.2h-3l-4.2.5-4,1.2-4.2,2.2-2.5,2-2,2-2.2,3.5-1.2,2.8-1,3.5-.5,3.8v3.8l1,5,1.5,4,1.8,2.8,2.2,2.5,2.5,2,4.2,2.2,3.8,1.2,2.8.5,5.2.2,4.2-.8,3.2-1,4.2-2,2.5-1.8,1.5-1.2,1,.2,3.8,3.8,1.8,2,2.8,3-.5,1.2-4,3-3.5,2-3.2,1.5-3.8,1.2-4.5,1-6,.5h-5l-4.8-.8-6.2-1.8-4.2-1.8-3-1.8-3-2.2-3.5-3.5-3-4.2-2-4-1.5-3.8-1.2-5.2-.5-3v-7.2l1-5.8,1.2-4,1.8-4,1.5-2.8,2.5-3.5.5-.8h.5l.5-1,2.8-2.8,3.5-2.5,3.5-2,4.8-1.8,6.2-1.5,2-.2-.4.5Z"/>
      <path class="cls-1" d="M516.5,63.9h6.8l4,.8,3.5,1.5,3,2,2.8,2.8.5-5.5,1.5-.2h10l.5.2.2,10v36.8l-.2,1.2-.5.2-8.5.2-2.2-.2-.5-.5-.2-1v-4.8l-2,1.8-2.2,2-3.5,2-4,1.2-2.5.5h-6.2l-4.8-1.2-4-1.5-3-1.8-2.5-2.2-2-2.2-2-3.5-1.5-3.8-1-4.5-.2-1.8v-6l1-5.8,1.8-4.5,2-3.2,3.8-3.8,3.5-2.5,2.8-1.2,3.5-1,2.8-.5h-.5ZM519.2,75.2l-2.8.5-3.2,1.8-2.5,2.5-1.2,2-1,2.8-.5,2.2v5l1,4,1.8,3,1.8,1.8,3.2,2,2.2,1,1.2.2h4.8l3-.8,3-1.2,2-1.5,2-2.2,1.8-3.5.5-2v-6l-1-3.5-2.2-3.8-2.2-2-3.2-1.5-3.2-.8h-5.3Z"/>
      <path class="cls-1" d="M643.2,63.9h4.8l5.2.8,4.2,1.5,4,2.2,2.5,2,2.5,3.2,2,4,1.5,5.2.5,2.8.2,6.8-.2,1-1,.2-25.8.2h-8.8l-3.5-.2,2,4,1.8,2v.5h.5v.5l1.2.5,2.2,1.2,4.5,1,3.8.2,4.2-.8,3.2-1,2.5-1.2,1.8-1.5,1.2.2,3.8,3.8v.5l1,.5,1.8,2.2-.2,1.5-3.8,2.5-3,1.5-4.8,1.5-5.5,1.2-1.8.2h-6.5l-3.8-.8-4.5-1.5-4.2-2.2-3-2.5-2.5-3.2-1.8-3-1.5-3.8-1-4.8v-7.5l1.2-5.2,1.8-4.2,1.8-2.8,3-3.2,3-2.2,4-2,4-1.2,5.2-.8.3.2ZM646.2,74.4l-4.5.5-3.2,1-2.8,2-2.2,2.8-1,1.8v1l7.8.2h17.5l.8-.5-1.2-3-1.5-2.5-2-1.8-4-1.2-3.5-.2-.2-.1Z"/>
      <path class="cls-1" d="M310.2,63.9h2.2l4,.5,3.8,1.2,3.8,2,2.8,2,2.5,2.2,2.2,2.8,2.5,4.8,1.2,4,.5,3v5.8l-.8,4.2-1.2,3.8-2,3.8-1.8,2.2-2.2,2.5-3.5,2.5-3.8,1.8-3.8,1-5,.8h-3.8l-5.2-.8-4-1.2-3.8-2-3.2-2.8-2.5-3-2-3.5-1.2-2.8-1.2-5.2-.2-2v-4.2l.8-3.8,1.2-4,2.8-5.2,2.8-3,2.5-2.2,3.8-2.2,3.5-1.2,4.2-1,4.2-.5-.1-.3ZM308.7,75.2l-3.8.8-2.8,1.5-2.5,2.2-1.5,2.5-1,2.5-.5,3v3.5l.8,3.8,1.8,3.5,2.2,2.5,2.2,1.5,1.8.8,1.2.2h4.2l3.8-.8,3-1.5,3-2.8,1.2-2.2,1-2.5.2-1.5v-4.8l-1-3.8-1.8-3-1.8-2-2.8-2-2-1-2.5-.5h-2.8l.4.1Z"/>
      <path class="cls-1" d="M390.5,64.6h4.8l4.8.8,3,1,3.8,2.2,3,2.8,2.5,3.8,1.8,4.2,1,5,.2,2.8v26.2l-.5.2h-11.2l-.2-.2-.2-2.8-.2-23.5-.5-3.8-1.2-3-2.2-2.5-2.5-1.5-2.2-.8-4-.2-3.2.5-2.5,1.2-2.5,2.8-1.8,3.5-.5,2-.2,4.2v23.5l-.8.5h-11.5l-.5-1v-47l1.2-.5h9.5l.5.2.2.8.2,5,2.8-1.8,2.2-1.8,4-2,3.2-1-.3.2Z"/>
      <path class="cls-1" d="M349.5,64.6h6.2l.5.2.2,47.5-.2.8-5.8.2h-6l-.5-.2-.2-.8v-47.5l5.8-.2Z"/>
      <path class="cls-1" d="M347.7,44.6h4.2l3,1.5,1.5,2,.8,2.5v2.2l-.8,2.5-1.2,1.8-2,1.2-1,.2h-4.5l-2.5-1.2-1.5-1.8-.8-2.2-.2-2.2.5-2.2.8-1.5,1-1.2,2-1.2.8-.2-.1-.2Z"/>
    </g>
  </g>
</svg>