<svg xmlns="http://www.w3.org/2000/svg" version="1.1" xmlns:xlink="http://www.w3.org/1999/xlink" width="512" height="512" x="0" y="0" viewBox="0 0 1707 1707" style="enable-background:new 0 0 512 512" xml:space="preserve" fill-rule="evenodd" class=""><g><path d="M103 1406V983c0-13 11-23 24-23h173v446zM346 1406V806c0-13 11-24 24-24h172v624zM589 1406V583c0-13 10-23 23-23h100c-4 110 36 221 120 305 15 14 30 28 46 40v501zM925 1406V935c59 32 127 50 196 50v421zM1201 1499H24c-13 0-23-10-23-23s10-24 23-24h1177c13 0 23 11 23 24s-10 23-23 23zM87 625c-22 0-42-9-58-24-15-16-24-36-24-58s9-43 24-59c16-15 36-24 58-24s43 9 58 24c33 33 33 85 0 117-15 15-36 24-58 24z" fill="#757a91" opacity="1" data-original="#000000" class=""></path><path d="M129 524c-6 0-12-2-17-7-9-9-9-23 0-33l79-78c9-9 23-9 33 0 9 9 9 24 0 33l-79 78c-4 5-10 7-16 7z" fill="#757a91" opacity="1" data-original="#000000" class=""></path><path d="M254 469c-22 0-43-9-59-24-32-32-32-85 0-117 16-16 37-24 59-24s43 8 58 24c32 32 32 85 0 117-15 15-36 24-58 24z" fill="#757a91" opacity="1" data-original="#000000" class=""></path><path d="M374 530c-6 0-12-2-16-7l-79-78c-9-9-9-24 0-33s24-9 33 0l79 78c9 9 9 24 0 33-5 5-11 7-17 7z" fill="#757a91" opacity="1" data-original="#000000" class=""></path><path d="M421 626c-22 0-43-9-59-24-15-16-24-37-24-59s9-42 24-58c16-16 37-24 59-24s42 8 58 24 24 36 24 58-8 43-24 59c-16 15-36 24-58 24zM600 497c-22 0-43-8-59-24-15-15-24-36-24-58s9-43 24-58c16-16 37-25 59-25s42 9 58 25c32 32 32 84 0 116-16 16-36 24-58 24z" fill="#757a91" opacity="1" data-original="#000000" class=""></path><path d="M479 559c-6 0-12-3-16-7-9-9-9-24 0-33l78-79c9-9 24-9 33 0s9 24 0 33l-78 79c-5 4-11 7-17 7zM1469 941c-6 0-12-3-17-7l-100-100c-9-10-9-24 0-33s24-9 33 0l100 100c9 9 9 24 0 33-5 4-11 7-16 7z" fill="#757a91" opacity="1" data-original="#000000" class=""></path><path d="M1608 1155c-8 0-15-3-20-9l-50-49 111-109 49 48c5 6 8 13 8 21s-3 15-8 21l-69 68c-6 6-13 9-21 9zm-103-91-91-92c-5-4-7-10-7-16s2-12 7-17l77-77c9-9 23-9 33 0l92 93zM1123 939c-97 0-189-38-258-107-143-143-143-375 0-517 69-69 161-107 258-107 98 0 190 38 259 107 142 142 142 374 0 517-69 69-161 107-259 107zm0-118c-66 0-128-26-175-73-97-96-97-254 0-350 47-47 109-73 175-73 67 0 129 26 176 73 46 47 72 109 72 175s-26 129-72 175c-47 47-109 73-176 73zm0-449c-53 0-104 21-142 59-78 78-78 206 0 284 38 38 89 59 142 59 54 0 105-21 143-59s59-88 59-142-21-104-59-142-89-59-143-59z" fill="#757a91" opacity="1" data-original="#000000" class=""></path></g></svg>