<svg xmlns="http://www.w3.org/2000/svg" version="1.1" xmlns:xlink="http://www.w3.org/1999/xlink" width="512" height="512" x="0" y="0" viewBox="0 0 24 24" style="enable-background:new 0 0 512 512" xml:space="preserve"><g><path d="M17 13H1a1 1 0 0 1 0-2h16a1 1 0 0 1 0 2z" fill="#ffffff" opacity="1" data-original="#000000"></path><path d="M17 13a1 1 0 0 1-.71-.29l-4-4a1 1 0 1 1 1.42-1.42l4 4a1 1 0 0 1 0 1.42A1 1 0 0 1 17 13z" fill="#ffffff" opacity="1" data-original="#000000"></path><path d="M13 17a1 1 0 0 1-.71-.29 1 1 0 0 1 0-1.42l4-4a1 1 0 0 1 1.42 1.42l-4 4A1 1 0 0 1 13 17z" fill="#ffffff" opacity="1" data-original="#000000"></path><path d="M19 24H5a1 1 0 0 1 0-2h14a3 3 0 0 0 3-3V5a3 3 0 0 0-3-3H5a1 1 0 0 1 0-2h14a5 5 0 0 1 5 5v14a5 5 0 0 1-5 5z" fill="#ffffff" opacity="1" data-original="#000000"></path></g></svg>