<svg xmlns="http://www.w3.org/2000/svg" version="1.1" xmlns:xlink="http://www.w3.org/1999/xlink" width="512" height="512" x="0" y="0" viewBox="0 0 510.441 510.441" style="enable-background:new 0 0 512 512" xml:space="preserve" class=""><g><path d="M230.325 210.317h50v120h-50zM310.325 330.317h50v-150h-50zM150.325 240.317h50v90h-50zM120.515 350.47 41.87 395.876c6.646 7.463 30.497 47.892 84.948 79.727 55.896 32.678 103.997 32.861 113.507 34.838v-90.81c-49.471-4.46-92.644-30.743-119.81-69.161z" fill="#757a91" opacity="1" data-original="#000000" class=""></path><path d="m483.814 140.718-78.662 45.416c48.616 101.255-23.613 225.223-134.827 233.496v90.809l16.856-2.102c182.011-22.298 271.523-221.814 196.633-367.619zM90.325 255.317c.392-161.145 208.56-224.908 299.81-95.154l78.645-45.405C283.492-144.081-104.852 75.796 26.836 369.914l78.662-45.414c-9.733-21.044-15.173-44.477-15.173-69.183z" fill="#757a91" opacity="1" data-original="#000000" class=""></path></g></svg>