<svg xmlns="http://www.w3.org/2000/svg" version="1.1" xmlns:xlink="http://www.w3.org/1999/xlink" width="512" height="512" x="0" y="0" viewBox="0 0 64 64" style="enable-background:new 0 0 512 512" xml:space="preserve" fill-rule="evenodd"><g><path d="M40 6h-6V0h-4v6h-6V0h-4v6h-4c-2.65 0-5.2 1.054-7.07 2.929A9.981 9.981 0 0 0 6 16v4H0v4h6v6H0v4h6v6H0v4h6v4a9.981 9.981 0 0 0 2.93 7.071A9.994 9.994 0 0 0 16 58h4v6h4v-6h6v6h4v-6h6v6h4v-6h4c2.65 0 5.2-1.054 7.07-2.929A9.981 9.981 0 0 0 58 48v-4h6v-4h-6v-6h6v-4h-6v-6h6v-4h-6v-4a9.981 9.981 0 0 0-2.93-7.071A9.994 9.994 0 0 0 48 6h-4V0h-4zm14 10v32c0 1.591-.63 3.117-1.76 4.243A5.988 5.988 0 0 1 48 54H16c-1.59 0-3.12-.632-4.24-1.757A5.985 5.985 0 0 1 10 48V16c0-1.591.63-3.117 1.76-4.243A5.988 5.988 0 0 1 16 10h32c1.59 0 3.12.632 4.24 1.757A5.985 5.985 0 0 1 54 16zm-14 4v24h4V20zm-20 7v17h4v-7h6v7h4V27c0-3.866-3.13-7-7-7s-7 3.134-7 7zm10 6v-6c0-1.657-1.34-3-3-3s-3 1.343-3 3v6z" fill="#ffffff" opacity="1" data-original="#000000"></path></g></svg>