<svg xmlns="http://www.w3.org/2000/svg" version="1.1" xmlns:xlink="http://www.w3.org/1999/xlink" width="512" height="512" x="0" y="0" viewBox="0 0 24 24" style="enable-background:new 0 0 512 512" xml:space="preserve" class=""><g><path d="M19 5H9a2.652 2.652 0 0 0-3 3v10a2 2 0 0 1-2 2h15a2.652 2.652 0 0 0 3-3V8a2.652 2.652 0 0 0-3-3zm-5 10.577a.816.816 0 0 1-.923.923H9.923A.816.816 0 0 1 9 15.577v-2.154a.816.816 0 0 1 .923-.923h3.154a.816.816 0 0 1 .923.923zm5 1.173h-2a.75.75 0 0 1 0-1.5h2a.75.75 0 0 1 0 1.5zm0-3h-2a.75.75 0 0 1 0-1.5h2a.75.75 0 0 1 0 1.5zm0-4H9.75a.75.75 0 0 1 0-1.5H19a.75.75 0 0 1 0 1.5zM3.251 18.5A1.249 1.249 0 0 1 2 17.249V11a2.006 2.006 0 0 1 2-2h.5v8.249A1.25 1.25 0 0 1 3.251 18.5z" fill="#757a91" opacity="1" data-original="#000000"></path></g></svg>