<?xml version="1.0"?>
<svg xmlns="http://www.w3.org/2000/svg" xmlns:xlink="http://www.w3.org/1999/xlink" xmlns:svgjs="http://svgjs.com/svgjs" version="1.1" width="512" height="512" x="0" y="0" viewBox="0 0 491.5 491.5" style="enable-background:new 0 0 512 512" xml:space="preserve" class=""><g><linearGradient xmlns="http://www.w3.org/2000/svg" id="Layer_x0020_1_1_" gradientUnits="userSpaceOnUse" x1="245.75" x2="245.75" y1="51.912" y2="439.6"><stop stop-opacity="1" stop-color="#118acf" offset="0"/><stop stop-opacity="1" stop-color="#961bff" offset="1"/></linearGradient><path xmlns="http://www.w3.org/2000/svg" id="Layer_x0020_1" d="m204.3 98.1c-91.5 0-166 74.5-166 166s74.5 166 166 166 166-74.5 166-166c0-14.6-1.9-29.1-5.7-43.1l-20.8 20.8c1.2 7.3 1.7 14.8 1.7 22.3 0 77.9-63.4 141.3-141.3 141.3-77.8 0-141.2-63.4-141.2-141.3s63.4-141.3 141.3-141.3c31.4 0 62 10.5 86.6 29.7l17.6-17.6c-29.4-23.7-66.2-36.8-104.2-36.8zm0 341.5c-96.8 0-175.5-78.7-175.5-175.5s78.7-175.5 175.5-175.5c42 0 82.6 15.1 114.4 42.4 1 .9 1.6 2.1 1.6 3.4.1 1.3-.5 2.6-1.4 3.5l-24.3 24.3c-1.7 1.7-4.5 1.9-6.4.3-23.5-19.5-53.4-30.2-84-30.2-72.7 0-131.8 59.1-131.8 131.8s59.1 131.8 131.8 131.8 131.8-59.1 131.8-131.8c0-7.7-.7-15.5-2-23.1-.3-1.5.2-3.1 1.3-4.2l28.2-28.2c1.2-1.2 2.9-1.6 4.5-1.3 1.6.4 2.9 1.6 3.4 3.2 5.5 17.3 8.3 35.3 8.3 53.5.1 96.9-78.6 175.6-175.4 175.6zm-82.3-187.2 78.9 78.9 250.4-250.5-17.5-17.5-229.6 229.6c-.9.9-2.1 1.4-3.3 1.4-1.3 0-2.5-.5-3.4-1.4l-58-58zm78.8 90.3c-1.2 0-2.4-.5-3.4-1.4l-85.6-85.6c-.9-.9-1.4-2.1-1.4-3.3 0-1.3.5-2.5 1.4-3.3l24.2-24.2c1.9-1.9 4.9-1.9 6.7 0l58 58 229.7-229.6c1.9-1.9 4.9-1.8 6.7 0l24.2 24.2c.9.9 1.4 2.1 1.4 3.4s-.5 2.5-1.4 3.3l-257.1 257.1c-1 1-2.2 1.4-3.4 1.4z" fill="url(#Layer_x0020_1_1_)" data-original="url(#Layer_x0020_1_1_)"/></g></svg>
