<?xml version="1.0"?>
<svg xmlns="http://www.w3.org/2000/svg" xmlns:xlink="http://www.w3.org/1999/xlink" xmlns:svgjs="http://svgjs.com/svgjs" version="1.1" width="512" height="512" x="0" y="0" viewBox="0 0 512 512" style="enable-background:new 0 0 512 512" xml:space="preserve" class=""><g><linearGradient xmlns="http://www.w3.org/2000/svg" id="New_Gradient_Swatch_2" gradientUnits="userSpaceOnUse" x1="255.925" x2="255.925" y1="12.624" y2="455.471"><stop stop-opacity="1" stop-color="#118acf" offset="0"/><stop stop-opacity="1" stop-color="#961bff" offset="1"/></linearGradient><linearGradient xmlns="http://www.w3.org/2000/svg" xmlns:xlink="http://www.w3.org/1999/xlink" id="New_Gradient_Swatch_2-2" x1="256" x2="256" xlink:href="#New_Gradient_Swatch_2" y1="12.624" y2="455.471"/><linearGradient xmlns="http://www.w3.org/2000/svg" xmlns:xlink="http://www.w3.org/1999/xlink" id="New_Gradient_Swatch_2-3" x1="143.715" x2="143.715" xlink:href="#New_Gradient_Swatch_2" y1="12.624" y2="455.471"/><linearGradient xmlns="http://www.w3.org/2000/svg" xmlns:xlink="http://www.w3.org/1999/xlink" id="New_Gradient_Swatch_2-4" x1="112" x2="112" xlink:href="#New_Gradient_Swatch_2" y1="12.624" y2="455.471"/><linearGradient xmlns="http://www.w3.org/2000/svg" xmlns:xlink="http://www.w3.org/1999/xlink" id="New_Gradient_Swatch_2-6" x1="368.285" x2="368.285" xlink:href="#New_Gradient_Swatch_2" y1="12.624" y2="455.471"/><linearGradient xmlns="http://www.w3.org/2000/svg" xmlns:xlink="http://www.w3.org/1999/xlink" id="New_Gradient_Swatch_2-7" x1="232" x2="232" xlink:href="#New_Gradient_Swatch_2" y1="12.624" y2="455.471"/><linearGradient xmlns="http://www.w3.org/2000/svg" xmlns:xlink="http://www.w3.org/1999/xlink" id="New_Gradient_Swatch_2-8" x1="296" x2="296" xlink:href="#New_Gradient_Swatch_2" y1="12.624" y2="455.471"/><linearGradient xmlns="http://www.w3.org/2000/svg" xmlns:xlink="http://www.w3.org/1999/xlink" id="New_Gradient_Swatch_2-9" x1="224" x2="224" xlink:href="#New_Gradient_Swatch_2" y1="12.624" y2="455.471"/><linearGradient xmlns="http://www.w3.org/2000/svg" xmlns:xlink="http://www.w3.org/1999/xlink" id="New_Gradient_Swatch_2-10" x1="248" x2="248" xlink:href="#New_Gradient_Swatch_2" y1="12.624" y2="455.471"/><linearGradient xmlns="http://www.w3.org/2000/svg" xmlns:xlink="http://www.w3.org/1999/xlink" id="New_Gradient_Swatch_2-11" x1="152" x2="152" xlink:href="#New_Gradient_Swatch_2" y1="12.624" y2="455.471"/><linearGradient xmlns="http://www.w3.org/2000/svg" xmlns:xlink="http://www.w3.org/1999/xlink" id="New_Gradient_Swatch_2-12" x1="360" x2="360" xlink:href="#New_Gradient_Swatch_2" y1="12.624" y2="455.471"/><linearGradient xmlns="http://www.w3.org/2000/svg" xmlns:xlink="http://www.w3.org/1999/xlink" id="New_Gradient_Swatch_2-13" x1="160" x2="160" xlink:href="#New_Gradient_Swatch_2" y1="12.624" y2="455.471"/><path xmlns="http://www.w3.org/2000/svg" d="m425.784 375.062-3.568 15.6c37.37 8.551 41.483 16.638 41.77 17.353-.79 2.892-13.2 12.649-59.546 20.918-40.014 7.135-92.758 11.067-148.515 11.067s-108.5-3.932-148.516-11.07c-46.347-8.269-58.756-18.026-59.546-20.918.288-.716 4.412-8.824 41.918-17.388l-3.562-15.6c-37.093 8.476-54.369 18.949-54.369 32.976v32c0 15.844 22.189 27.331 69.831 36.15 41.276 7.642 96.054 11.85 154.244 11.85s112.968-4.208 154.244-11.85c47.642-8.819 69.831-20.306 69.831-36.15v-32c0-14.008-17.228-24.475-54.216-32.938zm-21.344 85.868c-40.014 7.138-92.758 11.07-148.515 11.07s-108.5-3.932-148.516-11.07c-46.756-8.341-58.971-18.2-59.559-20.93v-11.857c11.478 6.2 29.261 11.459 53.831 16.007 41.276 7.642 96.054 11.85 154.244 11.85s112.968-4.208 154.244-11.85c24.572-4.548 42.356-9.809 53.834-16.009v11.8c-.591 2.791-12.803 12.648-59.563 20.989z" fill="url(#New_Gradient_Swatch_2)" data-original="url(#New_Gradient_Swatch_2)"/><path xmlns="http://www.w3.org/2000/svg" d="m152.861 408.861c27.619 4.604 64.248 7.139 103.139 7.139s75.52-2.535 103.139-7.139c34.249-5.708 48.861-13.142 48.861-24.861v-64h-16v47.329c-7.81-3.149-18.637-5.82-32.861-8.19-27.619-4.604-64.248-7.139-103.139-7.139-19.522 0-38.471.64-56 1.858v-41.858h-16v43.177c-11.242 1.07-21.724 2.392-31.139 3.962-14.224 2.37-25.051 5.041-32.861 8.19v-63.329h-16v80c0 11.719 14.612 19.153 48.861 24.861zm8.946-34.93c6.9-1.017 14.346-1.909 22.193-2.676v12.745h16v-14.093c17.531-1.248 36.554-1.907 56-1.907 34.8 0 68.248 2.106 94.193 5.931 24.944 3.676 35.469 7.779 39.685 10.069-4.216 2.29-14.741 6.393-39.685 10.069-25.945 3.825-59.393 5.931-94.193 5.931s-68.248-2.106-94.193-5.931c-24.944-3.676-35.469-7.779-39.685-10.069 4.216-2.29 14.741-6.393 39.685-10.069z" fill="url(#New_Gradient_Swatch_2-2)" data-original="url(#New_Gradient_Swatch_2-2)"/><path xmlns="http://www.w3.org/2000/svg" d="m134.063 218.933 3.874 15.523c4.538-1.132 9.729-2.207 15.429-3.195l-2.732-15.761c-6.082 1.05-11.657 2.206-16.571 3.433z" fill="url(#New_Gradient_Swatch_2-3)" data-original="url(#New_Gradient_Swatch_2-3)"/><path xmlns="http://www.w3.org/2000/svg" d="m104 24h16v16h-16z" fill="url(#New_Gradient_Swatch_2-4)" data-original="url(#New_Gradient_Swatch_2-4)"/><path xmlns="http://www.w3.org/2000/svg" d="m120 256.671c7.81 3.149 18.637 5.82 32.861 8.19 27.619 4.604 64.248 7.139 103.139 7.139q8.077 0 16-.149v56.149h16v-56.594c17.1-.638 33.324-1.783 48-3.4v19.994h16v-22.033c2.433-.355 4.828-.72 7.139-1.106 14.224-2.37 25.051-5.041 32.861-8.19v47.329h16v-128h-16v47.329c-7.81-3.149-18.637-5.82-32.861-8.19-2.311-.386-4.706-.751-7.139-1.106v-30.033h-16v27.992a748.278 748.278 0 0 0 -80-3.992c-32.46 0-63.2 1.747-88.9 5.052l2.041 15.869c25.034-3.221 55.07-4.921 86.859-4.921a730.32 730.32 0 0 1 80 4.1v23.8c-14.583 1.652-30.854 2.837-48 3.493v-15.393h-16v15.845q-7.932.148-16 .155c-34.8 0-68.248-2.106-94.193-5.931-31.288-4.612-39.888-9.892-41.807-11.425v-117.974c7.81 3.149 18.637 5.82 32.861 8.19 11.616 1.936 24.839 3.5 39.139 4.671v18.469h16v-17.353c15.242.887 31.411 1.352 48 1.352 32.46 0 63.2-1.747 88.9-5.052l-2.041-15.869c-25.034 3.222-55.07 4.922-86.859 4.922-16.527 0-32.74-.48-48-1.389v-29.223c15.26-.909 31.473-1.388 48-1.388 13.668 0 27.12.33 40 .956v15.044h16v-14.094c13.838.985 26.748 2.337 38.193 4.024 31.288 4.612 39.888 9.892 41.807 11.425v54.645h16v-136h-16v63.328c-7.81-3.149-18.637-5.82-32.861-8.19-13.756-2.293-29.748-4.072-47.139-5.281v-41.857h-16v40.931c-12.859-.61-26.282-.932-40-.932-16.589 0-32.758.465-48 1.352v-25.351h-16v26.467c-14.3 1.17-27.523 2.735-39.139 4.671-14.224 2.37-25.051 5.041-32.861 8.19v-31.328h-16v232h16zm269.878-16.671c-4.112 2.234-14.234 6.192-37.878 9.8v-19.6c23.644 3.608 33.766 7.566 37.878 9.8zm-228.071-146.07c9.206-1.357 19.371-2.493 30.193-3.4v26.938c-10.822-.907-20.987-2.043-30.193-3.4-24.944-3.676-35.469-7.779-39.685-10.069 4.216-2.29 14.741-6.393 39.685-10.069z" fill="url(#New_Gradient_Swatch_2-2)" data-original="url(#New_Gradient_Swatch_2-2)"/><path xmlns="http://www.w3.org/2000/svg" d="m361.366 128.5c6.082-1.055 11.657-2.211 16.571-3.438l-3.874-15.523c-4.538 1.132-9.729 2.207-15.429 3.195z" fill="url(#New_Gradient_Swatch_2-6)" data-original="url(#New_Gradient_Swatch_2-6)"/><path xmlns="http://www.w3.org/2000/svg" d="m224 304h16v16h-16z" fill="url(#New_Gradient_Swatch_2-7)" data-original="url(#New_Gradient_Swatch_2-7)"/><path xmlns="http://www.w3.org/2000/svg" d="m288 160h16v16h-16z" fill="url(#New_Gradient_Swatch_2-8)" data-original="url(#New_Gradient_Swatch_2-8)"/><path xmlns="http://www.w3.org/2000/svg" d="m216 176h16v16h-16z" fill="url(#New_Gradient_Swatch_2-9)" data-original="url(#New_Gradient_Swatch_2-9)"/><path xmlns="http://www.w3.org/2000/svg" d="m240 40h16v16h-16z" fill="url(#New_Gradient_Swatch_2-10)" data-original="url(#New_Gradient_Swatch_2-10)"/><path xmlns="http://www.w3.org/2000/svg" d="m144 280h16v16h-16z" fill="url(#New_Gradient_Swatch_2-11)" data-original="url(#New_Gradient_Swatch_2-11)"/><path xmlns="http://www.w3.org/2000/svg" d="m352 320h16v16h-16z" fill="url(#New_Gradient_Swatch_2-12)" data-original="url(#New_Gradient_Swatch_2-12)"/><path xmlns="http://www.w3.org/2000/svg" d="m152 144h16v48h-16z" fill="url(#New_Gradient_Swatch_2-13)" data-original="url(#New_Gradient_Swatch_2-13)"/></g></svg>
