<?xml version="1.0"?>
<svg xmlns="http://www.w3.org/2000/svg" xmlns:xlink="http://www.w3.org/1999/xlink" xmlns:svgjs="http://svgjs.com/svgjs" version="1.1" width="512" height="512" x="0" y="0" viewBox="0 0 512 512" style="enable-background:new 0 0 512 512" xml:space="preserve" class=""><g><linearGradient xmlns="http://www.w3.org/2000/svg" id="New_Gradient_Swatch_2" gradientUnits="userSpaceOnUse" x1="215.99" x2="215.99" y1="72.935" y2="423.282"><stop stop-opacity="1" stop-color="#118acf" offset="0"/><stop stop-opacity="1" stop-color="#961bff" offset="1"/></linearGradient><linearGradient xmlns="http://www.w3.org/2000/svg" xmlns:xlink="http://www.w3.org/1999/xlink" id="New_Gradient_Swatch_2-2" x1="96" x2="96" xlink:href="#New_Gradient_Swatch_2" y1="72.935" y2="423.282"/><linearGradient xmlns="http://www.w3.org/2000/svg" xmlns:xlink="http://www.w3.org/1999/xlink" id="New_Gradient_Swatch_2-3" x1="360" x2="360" xlink:href="#New_Gradient_Swatch_2" y1="72.935" y2="423.282"/><linearGradient xmlns="http://www.w3.org/2000/svg" xmlns:xlink="http://www.w3.org/1999/xlink" id="New_Gradient_Swatch_2-4" x1="312" x2="312" xlink:href="#New_Gradient_Swatch_2" y1="72.935" y2="423.282"/><linearGradient xmlns="http://www.w3.org/2000/svg" xmlns:xlink="http://www.w3.org/1999/xlink" id="New_Gradient_Swatch_2-5" x1="336" x2="336" xlink:href="#New_Gradient_Swatch_2" y1="72.935" y2="423.282"/><linearGradient xmlns="http://www.w3.org/2000/svg" xmlns:xlink="http://www.w3.org/1999/xlink" id="New_Gradient_Swatch_2-7" x1="200" x2="200" xlink:href="#New_Gradient_Swatch_2" y1="72.935" y2="423.282"/><linearGradient xmlns="http://www.w3.org/2000/svg" xmlns:xlink="http://www.w3.org/1999/xlink" id="New_Gradient_Swatch_2-8" x1="232" x2="232" xlink:href="#New_Gradient_Swatch_2" y1="72.935" y2="423.282"/><linearGradient xmlns="http://www.w3.org/2000/svg" xmlns:xlink="http://www.w3.org/1999/xlink" id="New_Gradient_Swatch_2-9" x1="292" x2="292" xlink:href="#New_Gradient_Swatch_2" y1="72.935" y2="423.282"/><linearGradient xmlns="http://www.w3.org/2000/svg" xmlns:xlink="http://www.w3.org/1999/xlink" id="New_Gradient_Swatch_2-10" x1="328" x2="328" xlink:href="#New_Gradient_Swatch_2" y1="72.935" y2="423.282"/><linearGradient xmlns="http://www.w3.org/2000/svg" xmlns:xlink="http://www.w3.org/1999/xlink" id="New_Gradient_Swatch_2-11" x1="296.502" x2="296.502" xlink:href="#New_Gradient_Swatch_2" y1="72.935" y2="423.282"/><linearGradient xmlns="http://www.w3.org/2000/svg" xmlns:xlink="http://www.w3.org/1999/xlink" id="New_Gradient_Swatch_2-12" x1="267.675" x2="267.675" xlink:href="#New_Gradient_Swatch_2" y1="72.935" y2="423.282"/><linearGradient xmlns="http://www.w3.org/2000/svg" xmlns:xlink="http://www.w3.org/1999/xlink" id="New_Gradient_Swatch_2-13" x1="242.962" x2="242.962" xlink:href="#New_Gradient_Swatch_2" y1="72.935" y2="423.282"/><linearGradient xmlns="http://www.w3.org/2000/svg" xmlns:xlink="http://www.w3.org/1999/xlink" id="New_Gradient_Swatch_2-14" x1="224.041" x2="224.041" xlink:href="#New_Gradient_Swatch_2" y1="72.935" y2="423.282"/><linearGradient xmlns="http://www.w3.org/2000/svg" xmlns:xlink="http://www.w3.org/1999/xlink" id="New_Gradient_Swatch_2-15" x1="212.206" x2="212.206" xlink:href="#New_Gradient_Swatch_2" y1="72.935" y2="423.282"/><linearGradient xmlns="http://www.w3.org/2000/svg" xmlns:xlink="http://www.w3.org/1999/xlink" id="New_Gradient_Swatch_2-16" x1="208.123" x2="208.123" xlink:href="#New_Gradient_Swatch_2" y1="72.935" y2="423.282"/><linearGradient xmlns="http://www.w3.org/2000/svg" xmlns:xlink="http://www.w3.org/1999/xlink" id="New_Gradient_Swatch_2-20" x1="413.038" x2="413.038" xlink:href="#New_Gradient_Swatch_2" y1="72.935" y2="423.282"/><linearGradient xmlns="http://www.w3.org/2000/svg" xmlns:xlink="http://www.w3.org/1999/xlink" id="New_Gradient_Swatch_2-21" x1="431.959" x2="431.959" xlink:href="#New_Gradient_Swatch_2" y1="72.935" y2="423.282"/><linearGradient xmlns="http://www.w3.org/2000/svg" xmlns:xlink="http://www.w3.org/1999/xlink" id="New_Gradient_Swatch_2-22" x1="443.794" x2="443.794" xlink:href="#New_Gradient_Swatch_2" y1="72.935" y2="423.282"/><linearGradient xmlns="http://www.w3.org/2000/svg" xmlns:xlink="http://www.w3.org/1999/xlink" id="New_Gradient_Swatch_2-23" x1="447.877" x2="447.877" xlink:href="#New_Gradient_Swatch_2" y1="72.935" y2="423.282"/><linearGradient xmlns="http://www.w3.org/2000/svg" xmlns:xlink="http://www.w3.org/1999/xlink" id="New_Gradient_Swatch_2-27" x1="388.325" x2="388.325" xlink:href="#New_Gradient_Swatch_2" y1="72.935" y2="423.282"/><linearGradient xmlns="http://www.w3.org/2000/svg" xmlns:xlink="http://www.w3.org/1999/xlink" id="New_Gradient_Swatch_2-28" x1="359.498" x2="359.498" xlink:href="#New_Gradient_Swatch_2" y1="72.935" y2="423.282"/><linearGradient xmlns="http://www.w3.org/2000/svg" xmlns:xlink="http://www.w3.org/1999/xlink" id="New_Gradient_Swatch_2-29" x1="324" x2="324" xlink:href="#New_Gradient_Swatch_2" y1="72.935" y2="423.282"/><linearGradient xmlns="http://www.w3.org/2000/svg" xmlns:xlink="http://www.w3.org/1999/xlink" id="New_Gradient_Swatch_2-30" x1="88" x2="88" xlink:href="#New_Gradient_Swatch_2" y1="72.935" y2="423.282"/><path xmlns="http://www.w3.org/2000/svg" d="m362.173 260.149a32.053 32.053 0 0 0 -15.763-4.149h-39.67a31.953 31.953 0 0 0 -31.04 24.236l-2.129 8.5-57.57 7.2-57.57-7.2-2.129-8.5a31.952 31.952 0 0 0 -31.042-24.236h-39.67a32.166 32.166 0 0 0 -27.441 15.535 244.263 244.263 0 0 0 -33.3 152.565l4.009 36.1a40.253 40.253 0 0 0 75.335 14.824l22.051-40.425a31.974 31.974 0 0 0 49.5-22.593l16.256 1.633v34.361h16v-32.761l7.2.721c.265.026.53.04.8.04s.531-.014.8-.04l7.2-.721v32.761a8 8 0 0 0 2.343 5.657l21.657 21.656v20.687h16v-24a8 8 0 0 0 -2.343-5.657l-21.657-21.656v-31.048l16.26-1.626a31.974 31.974 0 0 0 49.5 22.593l22.053 40.428a40.253 40.253 0 0 0 75.329-14.834l4.009-36.1a245.545 245.545 0 0 0 -33.3-152.575 32.106 32.106 0 0 0 -11.678-11.376zm-145.181 51.789 36.582-4.572-3.927 13.746-33.647 6.73-33.647-6.73-3.927-13.746 36.582 4.572a7.935 7.935 0 0 0 1.984 0zm-72.992 112.062a16 16 0 1 1 16-16 16.019 16.019 0 0 1 -16 16zm144 0a16 16 0 1 1 16-16 16.019 16.019 0 0 1 -16 16zm103.249-1.663-4.01 36.1a24.249 24.249 0 0 1 -45.385 8.935l-24.928-45.7a32 32 0 1 0 -58.47-25.956l-42.456 4.244-42.456-4.246a32 32 0 1 0 -58.47 25.956l-24.925 45.694a24.25 24.25 0 0 1 -45.388-8.926l-4.011-36.106a228.268 228.268 0 0 1 18.494-118.332h68.756v-16h-60.83q2.265-4.158 4.7-8.232a16.085 16.085 0 0 1 13.72-7.768h39.67a15.975 15.975 0 0 1 15.519 12.122l3.46 13.82a8 8 0 0 0 6.769 6l10.161 1.271 7.139 24.988a8 8 0 0 0 6.123 5.648l40 8a8.019 8.019 0 0 0 3.138 0l40-8a8 8 0 0 0 6.123-5.648l7.139-24.988 10.161-1.271a8 8 0 0 0 6.769-6l3.46-13.822a15.975 15.975 0 0 1 15.519-12.12h39.67a15.99 15.99 0 0 1 13.72 7.766q2.441 4.068 4.7 8.234h-60.83v16h68.728a229.605 229.605 0 0 1 18.521 118.337z" fill="url(#New_Gradient_Swatch_2)" data-original="url(#New_Gradient_Swatch_2)"/><path xmlns="http://www.w3.org/2000/svg" d="m104 320h-16v24h-24v16h24v24h16v-24h24v-16h-24z" fill="url(#New_Gradient_Swatch_2-2)" data-original="url(#New_Gradient_Swatch_2-2)"/><path xmlns="http://www.w3.org/2000/svg" d="m352 344h16v16h-16z" fill="url(#New_Gradient_Swatch_2-3)" data-original="url(#New_Gradient_Swatch_2-3)"/><path xmlns="http://www.w3.org/2000/svg" d="m304 344h16v16h-16z" fill="url(#New_Gradient_Swatch_2-4)" data-original="url(#New_Gradient_Swatch_2-4)"/><path xmlns="http://www.w3.org/2000/svg" d="m328 320h16v16h-16z" fill="url(#New_Gradient_Swatch_2-5)" data-original="url(#New_Gradient_Swatch_2-5)"/><path xmlns="http://www.w3.org/2000/svg" d="m328 368h16v16h-16z" fill="url(#New_Gradient_Swatch_2-5)" data-original="url(#New_Gradient_Swatch_2-5)"/><path xmlns="http://www.w3.org/2000/svg" d="m192 368h16v16h-16z" fill="url(#New_Gradient_Swatch_2-7)" data-original="url(#New_Gradient_Swatch_2-7)"/><path xmlns="http://www.w3.org/2000/svg" d="m224 368h16v16h-16z" fill="url(#New_Gradient_Swatch_2-8)" data-original="url(#New_Gradient_Swatch_2-8)"/><path xmlns="http://www.w3.org/2000/svg" d="m328 16c-65.48 0-121.889 39.544-146.626 96h-34.061l-13.656-13.657a8 8 0 0 0 -5.657-2.343h-32v16h28.687l13.656 13.657a8 8 0 0 0 5.657 2.343h31.359a158.606 158.606 0 0 0 -4.142 16h-43.217v16h40.8q-.788 7.9-.8 16h-56v16h56.8a159.886 159.886 0 0 0 2.416 16h-43.216v16h47.329a159.538 159.538 0 0 0 35.986 61.475l11.666-10.95a143.458 143.458 0 0 1 -38.981-98.525c0-79.4 64.6-144 144-144s144 64.6 144 144a143.257 143.257 0 0 1 -68.217 122.47l8.434 13.6a159.9 159.9 0 0 0 75.783-136.07c0-88.225-71.775-160-160-160z" fill="url(#New_Gradient_Swatch_2-9)" data-original="url(#New_Gradient_Swatch_2-9)"/><path xmlns="http://www.w3.org/2000/svg" d="m335.476 64.245 1.048-15.965a130 130 0 0 0 -17.048 0l1.048 15.965a115.123 115.123 0 0 1 14.952 0z" fill="url(#New_Gradient_Swatch_2-10)" data-original="url(#New_Gradient_Swatch_2-10)"/><path xmlns="http://www.w3.org/2000/svg" d="m306.3 66.118-3.119-15.693c-2.767.55-5.561 1.2-8.309 1.937s-5.492 1.57-8.161 2.477l5.148 15.148c2.339-.794 4.747-1.525 7.155-2.171s4.857-1.216 7.286-1.698z" fill="url(#New_Gradient_Swatch_2-11)" data-original="url(#New_Gradient_Swatch_2-11)"/><path xmlns="http://www.w3.org/2000/svg" d="m264 65.148c-2.459 1.419-4.9 2.936-7.246 4.507l8.9 13.3c2.058-1.376 4.194-2.7 6.35-3.949s4.369-2.428 6.594-3.524l-7.071-14.353c-2.543 1.25-5.074 2.603-7.527 4.019z" fill="url(#New_Gradient_Swatch_2-12)" data-original="url(#New_Gradient_Swatch_2-12)"/><path xmlns="http://www.w3.org/2000/svg" d="m248.806 96.8c1.749-1.75 3.586-3.47 5.458-5.113l-10.549-12.026c-2.136 1.872-4.23 3.834-6.223 5.828s-3.959 4.09-5.831 6.226l12.029 10.549c1.643-1.872 3.363-3.709 5.116-5.464z" fill="url(#New_Gradient_Swatch_2-13)" data-original="url(#New_Gradient_Swatch_2-13)"/><path xmlns="http://www.w3.org/2000/svg" d="m217.149 112c-1.417 2.454-2.77 4.985-4.021 7.525l14.353 7.071c1.1-2.225 2.282-4.444 3.525-6.6s2.572-4.29 3.948-6.348l-13.3-8.9c-1.57 2.352-3.087 4.794-4.505 7.252z" fill="url(#New_Gradient_Swatch_2-14)" data-original="url(#New_Gradient_Swatch_2-14)"/><path xmlns="http://www.w3.org/2000/svg" d="m204.361 142.872c-.735 2.745-1.386 5.539-1.936 8.306l15.693 3.119c.482-2.426 1.054-4.877 1.7-7.286s1.372-4.8 2.171-7.155l-15.148-5.148c-.914 2.684-1.747 5.43-2.48 8.164z" fill="url(#New_Gradient_Swatch_2-15)" data-original="url(#New_Gradient_Swatch_2-15)"/><path xmlns="http://www.w3.org/2000/svg" d="m200 176c0 2.831.094 5.7.28 8.524l15.965-1.048c-.162-2.476-.245-4.994-.245-7.476s.083-5 .245-7.476l-15.965-1.048c-.186 2.824-.28 5.693-.28 8.524z" fill="url(#New_Gradient_Swatch_2-16)" data-original="url(#New_Gradient_Swatch_2-16)"/><path xmlns="http://www.w3.org/2000/svg" d="m206.839 217.292 15.148-5.148c-.794-2.339-1.525-4.747-2.171-7.155s-1.216-4.86-1.7-7.286l-15.693 3.119c.55 2.767 1.2 5.561 1.937 8.309s1.572 5.492 2.479 8.161z" fill="url(#New_Gradient_Swatch_2-15)" data-original="url(#New_Gradient_Swatch_2-15)"/><path xmlns="http://www.w3.org/2000/svg" d="m221.655 247.245 13.3-8.9c-1.376-2.058-2.7-4.194-3.949-6.35s-2.428-4.369-3.524-6.594l-14.353 7.071c1.251 2.54 2.6 5.071 4.02 7.523s2.935 4.905 4.506 7.25z" fill="url(#New_Gradient_Swatch_2-14)" data-original="url(#New_Gradient_Swatch_2-14)"/><path xmlns="http://www.w3.org/2000/svg" d="m243.715 272.339 10.549-12.029c-1.872-1.643-3.709-3.363-5.461-5.116s-3.47-3.586-5.113-5.458l-12.029 10.549c1.872 2.136 3.834 4.23 5.828 6.223s4.09 3.959 6.226 5.831z" fill="url(#New_Gradient_Swatch_2-13)" data-original="url(#New_Gradient_Swatch_2-13)"/><path xmlns="http://www.w3.org/2000/svg" d="m412.285 272.339c2.136-1.872 4.23-3.834 6.223-5.828s3.959-4.09 5.831-6.226l-12.029-10.549c-1.643 1.872-3.363 3.709-5.116 5.461s-3.586 3.47-5.458 5.113z" fill="url(#New_Gradient_Swatch_2-20)" data-original="url(#New_Gradient_Swatch_2-20)"/><path xmlns="http://www.w3.org/2000/svg" d="m424.994 232c-1.244 2.154-2.572 4.29-3.948 6.348l13.3 8.9c1.571-2.349 3.088-4.787 4.506-7.244s2.77-4.985 4.021-7.525l-14.353-7.071c-1.097 2.222-2.283 4.441-3.526 6.592z" fill="url(#New_Gradient_Swatch_2-21)" data-original="url(#New_Gradient_Swatch_2-21)"/><path xmlns="http://www.w3.org/2000/svg" d="m451.639 209.128c.735-2.745 1.386-5.539 1.936-8.306l-15.693-3.122c-.482 2.426-1.054 4.877-1.7 7.286s-1.372 4.8-2.171 7.155l15.148 5.148c.914-2.681 1.747-5.427 2.48-8.161z" fill="url(#New_Gradient_Swatch_2-22)" data-original="url(#New_Gradient_Swatch_2-22)"/><path xmlns="http://www.w3.org/2000/svg" d="m456 176c0-2.831-.094-5.7-.28-8.524l-15.965 1.048c.162 2.479.245 4.994.245 7.476s-.083 5-.245 7.476l15.965 1.048c.186-2.824.28-5.693.28-8.524z" fill="url(#New_Gradient_Swatch_2-23)" data-original="url(#New_Gradient_Swatch_2-23)"/><path xmlns="http://www.w3.org/2000/svg" d="m449.161 134.708-15.148 5.148c.794 2.339 1.525 4.747 2.171 7.155s1.216 4.86 1.7 7.286l15.693-3.119c-.55-2.767-1.2-5.561-1.937-8.309s-1.572-5.492-2.479-8.161z" fill="url(#New_Gradient_Swatch_2-22)" data-original="url(#New_Gradient_Swatch_2-22)"/><path xmlns="http://www.w3.org/2000/svg" d="m434.345 104.755-13.3 8.9c1.376 2.058 2.7 4.194 3.949 6.35s2.428 4.369 3.524 6.594l14.353-7.071c-1.251-2.54-2.6-5.071-4.02-7.523s-2.935-4.905-4.506-7.25z" fill="url(#New_Gradient_Swatch_2-21)" data-original="url(#New_Gradient_Swatch_2-21)"/><path xmlns="http://www.w3.org/2000/svg" d="m412.285 79.661-10.549 12.029c1.872 1.643 3.709 3.363 5.461 5.116s3.47 3.586 5.113 5.458l12.029-10.549c-1.872-2.136-3.834-4.23-5.828-6.223s-4.09-3.959-6.226-5.831z" fill="url(#New_Gradient_Swatch_2-20)" data-original="url(#New_Gradient_Swatch_2-20)"/><path xmlns="http://www.w3.org/2000/svg" d="m399.245 69.655c-2.349-1.571-4.787-3.088-7.244-4.506s-4.985-2.77-7.525-4.021l-7.071 14.353c2.225 1.1 4.444 2.282 6.6 3.525s4.29 2.572 6.348 3.948z" fill="url(#New_Gradient_Swatch_2-27)" data-original="url(#New_Gradient_Swatch_2-27)"/><path xmlns="http://www.w3.org/2000/svg" d="m364.144 69.987 5.148-15.148c-2.684-.912-5.43-1.745-8.164-2.478s-5.539-1.386-8.306-1.936l-3.122 15.693c2.426.482 4.877 1.054 7.286 1.7s4.806 1.37 7.158 2.169z" fill="url(#New_Gradient_Swatch_2-28)" data-original="url(#New_Gradient_Swatch_2-28)"/><path xmlns="http://www.w3.org/2000/svg" d="m272 128h16v80h-16v16h32v16h16v-16h16v16h16v-17.013a31.978 31.978 0 0 0 13.132-54.987 31.978 31.978 0 0 0 -13.132-54.987v-17.013h-16v16h-16v-16h-16v16h-32zm88 64a16.019 16.019 0 0 1 -16 16h-40v-32h40a16.019 16.019 0 0 1 16 16zm0-48a16.019 16.019 0 0 1 -16 16h-40v-32h40a16.019 16.019 0 0 1 16 16z" fill="url(#New_Gradient_Swatch_2-29)" data-original="url(#New_Gradient_Swatch_2-29)"/><path xmlns="http://www.w3.org/2000/svg" d="m80 176h16v16h-16z" fill="url(#New_Gradient_Swatch_2-30)" data-original="url(#New_Gradient_Swatch_2-30)"/><path xmlns="http://www.w3.org/2000/svg" d="m192 464h16v16h-16z" fill="url(#New_Gradient_Swatch_2-7)" data-original="url(#New_Gradient_Swatch_2-7)"/></g></svg>
