<?xml version="1.0"?>
<svg xmlns="http://www.w3.org/2000/svg" xmlns:xlink="http://www.w3.org/1999/xlink" xmlns:svgjs="http://svgjs.com/svgjs" version="1.1" width="512" height="512" x="0" y="0" viewBox="0 0 512 512" style="enable-background:new 0 0 512 512" xml:space="preserve" class=""><g><linearGradient xmlns="http://www.w3.org/2000/svg" id="New_Gradient_Swatch_2" gradientUnits="userSpaceOnUse" x1="256" x2="256" y1="50.871" y2="469.044"><stop stop-opacity="1" stop-color="#118acf" offset="0"/><stop stop-opacity="1" stop-color="#961bff" offset="1"/></linearGradient><linearGradient xmlns="http://www.w3.org/2000/svg" xmlns:xlink="http://www.w3.org/1999/xlink" id="New_Gradient_Swatch_2-2" x1="112" x2="112" xlink:href="#New_Gradient_Swatch_2" y1="50.871" y2="469.044"/><linearGradient xmlns="http://www.w3.org/2000/svg" xmlns:xlink="http://www.w3.org/1999/xlink" id="New_Gradient_Swatch_2-3" x1="81.948" x2="81.948" xlink:href="#New_Gradient_Swatch_2" y1="50.871" y2="469.044"/><linearGradient xmlns="http://www.w3.org/2000/svg" xmlns:xlink="http://www.w3.org/1999/xlink" id="New_Gradient_Swatch_2-4" x1="400" x2="400" xlink:href="#New_Gradient_Swatch_2" y1="50.871" y2="469.044"/><linearGradient xmlns="http://www.w3.org/2000/svg" xmlns:xlink="http://www.w3.org/1999/xlink" id="New_Gradient_Swatch_2-5" x1="430.052" x2="430.052" xlink:href="#New_Gradient_Swatch_2" y1="50.871" y2="469.044"/><linearGradient xmlns="http://www.w3.org/2000/svg" xmlns:xlink="http://www.w3.org/1999/xlink" id="New_Gradient_Swatch_2-6" x1="208" x2="208" xlink:href="#New_Gradient_Swatch_2" y1="50.871" y2="469.044"/><linearGradient xmlns="http://www.w3.org/2000/svg" xmlns:xlink="http://www.w3.org/1999/xlink" id="New_Gradient_Swatch_2-7" x1="240" x2="240" xlink:href="#New_Gradient_Swatch_2" y1="50.871" y2="469.044"/><linearGradient xmlns="http://www.w3.org/2000/svg" xmlns:xlink="http://www.w3.org/1999/xlink" id="New_Gradient_Swatch_2-8" x1="184" x2="184" xlink:href="#New_Gradient_Swatch_2" y1="50.871" y2="469.044"/><linearGradient xmlns="http://www.w3.org/2000/svg" xmlns:xlink="http://www.w3.org/1999/xlink" id="New_Gradient_Swatch_2-9" x1="304" x2="304" xlink:href="#New_Gradient_Swatch_2" y1="50.871" y2="469.044"/><linearGradient xmlns="http://www.w3.org/2000/svg" xmlns:xlink="http://www.w3.org/1999/xlink" id="New_Gradient_Swatch_2-10" x1="280" x2="280" xlink:href="#New_Gradient_Swatch_2" y1="50.871" y2="469.044"/><linearGradient xmlns="http://www.w3.org/2000/svg" xmlns:xlink="http://www.w3.org/1999/xlink" id="New_Gradient_Swatch_2-11" x1="328" x2="328" xlink:href="#New_Gradient_Swatch_2" y1="50.871" y2="469.044"/><linearGradient xmlns="http://www.w3.org/2000/svg" xmlns:xlink="http://www.w3.org/1999/xlink" id="New_Gradient_Swatch_2-13" x1="272" x2="272" xlink:href="#New_Gradient_Swatch_2" y1="50.871" y2="469.044"/><linearGradient xmlns="http://www.w3.org/2000/svg" xmlns:xlink="http://www.w3.org/1999/xlink" id="New_Gradient_Swatch_2-16" x1="232" x2="232" xlink:href="#New_Gradient_Swatch_2" y1="50.871" y2="469.044"/><path xmlns="http://www.w3.org/2000/svg" d="m289.941 233.373-11.314-11.314-14.627 14.627v-68.686h-16v68.686l-14.627-14.627-11.314 11.314 14.627 14.627h-36.686v16h36.686l-14.627 14.627 11.314 11.314 14.627-14.627v68.686h16v-68.686l14.627 14.627 11.314-11.314-14.627-14.627h36.686v-16h-36.686z" fill="url(#New_Gradient_Swatch_2)" data-original="url(#New_Gradient_Swatch_2)"/><path xmlns="http://www.w3.org/2000/svg" d="m184 256a167.8 167.8 0 0 0 -107.269-156.674 172.681 172.681 0 0 1 9.1-22.573 2.44 2.44 0 0 1 4.334 0 172.212 172.212 0 0 1 8.838 21.794l15.168-5.092a187.916 187.916 0 0 0 -9.687-23.84 18.439 18.439 0 0 0 -32.972 0c-5.672 11.378-10.785 25.628-15.2 42.356-10.512 39.897-16.312 91.049-16.312 144.029s5.8 104.132 16.318 144.03c4.411 16.728 9.524 30.978 15.2 42.356a18.44 18.44 0 0 0 32.973 0 187.99 187.99 0 0 0 9.686-23.839l-15.168-5.092a172.133 172.133 0 0 1 -8.838 21.793 2.44 2.44 0 0 1 -4.334 0 172.681 172.681 0 0 1 -9.1-22.573 167.8 167.8 0 0 0 107.263-156.675zm-48.3-93.776-16.548 12.41-22.585-11.295 3.763-33.872a151.625 151.625 0 0 1 35.37 32.757zm-63.911 233.726c-10.182-38.605-15.789-88.307-15.789-139.95s5.607-101.345 15.789-139.95c.118-.45.239-.891.359-1.337q6.714 2.663 13.066 5.908l-5.165 46.5a8 8 0 0 0 4.373 8.038l32 16a8 8 0 0 0 8.378-.755l20.092-15.067a151.812 151.812 0 0 1 14.279 29.512l-31.966 3.195a8 8 0 0 0 -5.861 3.522l-32 48a8 8 0 0 0 -1.036 6.635l13.728 48.048-23.976 5.99a8 8 0 0 0 -5.905 9.33l8 40a8 8 0 0 0 3.6 5.214l14.531 9.084a151.9 151.9 0 0 1 -26.142 13.42c-.116-.446-.237-.887-.355-1.337zm40.461-22.224-17.083-10.68-5.826-29.135 24.6-6.15a8 8 0 0 0 5.752-9.958l-14.984-52.444 27.851-41.775 31.255-3.124a152.572 152.572 0 0 1 4.185 35.54 151.878 151.878 0 0 1 -55.75 117.726z" fill="url(#New_Gradient_Swatch_2-2)" data-original="url(#New_Gradient_Swatch_2-2)"/><path xmlns="http://www.w3.org/2000/svg" d="m88 480c-14.984 0-31.16-23.3-43.271-62.322-13.367-43.073-20.729-100.49-20.729-161.678s7.362-118.6 20.729-161.678c12.111-39.022 28.287-62.322 43.271-62.322 14.829 0 37.4 25.564 52.224 97.611l15.672-3.222c-6.61-32.136-15.715-59.049-26.33-77.828-12.213-21.606-26.198-32.561-41.566-32.561-23.366 0-43.613 25.443-58.552 73.58-13.831 44.566-21.448 103.668-21.448 166.42s7.617 121.854 21.448 166.42c14.939 48.137 35.186 73.58 58.552 73.58 15.368 0 29.353-10.955 41.566-32.561 10.615-18.779 19.72-45.692 26.33-77.828l-15.672-3.222c-14.824 72.047-37.395 97.611-52.224 97.611z" fill="url(#New_Gradient_Swatch_2-3)" data-original="url(#New_Gradient_Swatch_2-3)"/><path xmlns="http://www.w3.org/2000/svg" d="m328 256a167.8 167.8 0 0 0 107.269 156.674 172.681 172.681 0 0 1 -9.1 22.573 2.44 2.44 0 0 1 -4.334 0 172.212 172.212 0 0 1 -8.835-21.793l-15.168 5.092a187.916 187.916 0 0 0 9.687 23.84 18.439 18.439 0 0 0 32.972 0c5.672-11.378 10.785-25.628 15.2-42.356 10.514-39.898 16.309-91.05 16.309-144.03s-5.8-104.132-16.318-144.03c-4.411-16.728-9.524-30.978-15.2-42.356a18.44 18.44 0 0 0 -32.973 0 187.99 187.99 0 0 0 -9.686 23.839l15.177 5.093a172.133 172.133 0 0 1 8.838-21.793 2.44 2.44 0 0 1 4.334 0 172.681 172.681 0 0 1 9.1 22.573 167.8 167.8 0 0 0 -107.272 156.674zm48.3 93.776 16.548-12.41 22.589 11.3-3.763 33.872a151.625 151.625 0 0 1 -35.374-32.762zm63.911-233.726c10.182 38.605 15.789 88.307 15.789 139.95s-5.607 101.345-15.789 139.95c-.118.45-.239.891-.359 1.337q-6.714-2.662-13.066-5.908l5.165-46.5a8 8 0 0 0 -4.373-8.038l-32-16a8 8 0 0 0 -8.378.755l-20.092 15.067a151.812 151.812 0 0 1 -14.279-29.512l31.971-3.191a8 8 0 0 0 5.861-3.522l32-48a8 8 0 0 0 1.036-6.635l-13.728-48.048 23.976-5.994a8 8 0 0 0 5.905-9.33l-8-40a8 8 0 0 0 -3.6-5.214l-14.531-9.084a151.9 151.9 0 0 1 26.142-13.42c.111.446.232.887.35 1.337zm-40.461 22.224 17.083 10.68 5.826 29.135-24.6 6.15a8 8 0 0 0 -5.752 9.958l14.984 52.444-27.851 41.775-31.255 3.124a152.332 152.332 0 0 1 51.565-153.266z" fill="url(#New_Gradient_Swatch_2-4)" data-original="url(#New_Gradient_Swatch_2-4)"/><path xmlns="http://www.w3.org/2000/svg" d="m482.552 89.58c-14.939-48.137-35.186-73.58-58.552-73.58-15.368 0-29.353 10.955-41.566 32.561-10.615 18.779-19.72 45.692-26.33 77.828l15.672 3.222c14.824-72.047 37.395-97.611 52.224-97.611 14.984 0 31.16 23.3 43.271 62.322 13.367 43.078 20.729 100.49 20.729 161.678s-7.362 118.605-20.729 161.678c-12.111 39.022-28.287 62.322-43.271 62.322-14.829 0-37.4-25.564-52.224-97.611l-15.676 3.222c6.61 32.136 15.715 59.049 26.33 77.828 12.217 21.606 26.202 32.561 41.57 32.561 23.366 0 43.613-25.443 58.552-73.58 13.831-44.566 21.448-103.668 21.448-166.42s-7.617-121.854-21.448-166.42z" fill="url(#New_Gradient_Swatch_2-5)" data-original="url(#New_Gradient_Swatch_2-5)"/><path xmlns="http://www.w3.org/2000/svg" d="m200 312h16v16h-16z" fill="url(#New_Gradient_Swatch_2-6)" data-original="url(#New_Gradient_Swatch_2-6)"/><path xmlns="http://www.w3.org/2000/svg" d="m232 384h16v16h-16z" fill="url(#New_Gradient_Swatch_2-7)" data-original="url(#New_Gradient_Swatch_2-7)"/><path xmlns="http://www.w3.org/2000/svg" d="m176 360h16v16h-16z" fill="url(#New_Gradient_Swatch_2-8)" data-original="url(#New_Gradient_Swatch_2-8)"/><path xmlns="http://www.w3.org/2000/svg" d="m296 320h16v16h-16z" fill="url(#New_Gradient_Swatch_2-9)" data-original="url(#New_Gradient_Swatch_2-9)"/><path xmlns="http://www.w3.org/2000/svg" d="m272 416h16v16h-16z" fill="url(#New_Gradient_Swatch_2-10)" data-original="url(#New_Gradient_Swatch_2-10)"/><path xmlns="http://www.w3.org/2000/svg" d="m320 368h16v16h-16z" fill="url(#New_Gradient_Swatch_2-11)" data-original="url(#New_Gradient_Swatch_2-11)"/><path xmlns="http://www.w3.org/2000/svg" d="m296 184h16v16h-16z" fill="url(#New_Gradient_Swatch_2-9)" data-original="url(#New_Gradient_Swatch_2-9)"/><path xmlns="http://www.w3.org/2000/svg" d="m264 112h16v16h-16z" fill="url(#New_Gradient_Swatch_2-13)" data-original="url(#New_Gradient_Swatch_2-13)"/><path xmlns="http://www.w3.org/2000/svg" d="m320 136h16v16h-16z" fill="url(#New_Gradient_Swatch_2-11)" data-original="url(#New_Gradient_Swatch_2-11)"/><path xmlns="http://www.w3.org/2000/svg" d="m200 176h16v16h-16z" fill="url(#New_Gradient_Swatch_2-6)" data-original="url(#New_Gradient_Swatch_2-6)"/><path xmlns="http://www.w3.org/2000/svg" d="m224 80h16v16h-16z" fill="url(#New_Gradient_Swatch_2-16)" data-original="url(#New_Gradient_Swatch_2-16)"/><path xmlns="http://www.w3.org/2000/svg" d="m176 128h16v16h-16z" fill="url(#New_Gradient_Swatch_2-8)" data-original="url(#New_Gradient_Swatch_2-8)"/></g></svg>
