<?xml version="1.0"?>
<svg xmlns="http://www.w3.org/2000/svg" xmlns:xlink="http://www.w3.org/1999/xlink" xmlns:svgjs="http://svgjs.com/svgjs" version="1.1" width="512" height="512" x="0" y="0" viewBox="0 0 300 300" style="enable-background:new 0 0 512 512" xml:space="preserve" class=""><g><linearGradient xmlns="http://www.w3.org/2000/svg" id="SVGID_1_" gradientUnits="userSpaceOnUse" x1="43.281" x2="229.277" y1="264.926" y2="78.931"><stop stop-opacity="1" stop-color="#961bff" offset="0"/><stop stop-opacity="1" stop-color="#118acf" offset="1"/></linearGradient><g xmlns="http://www.w3.org/2000/svg"><path d="m130.883 178.296c-2.156-.488-4.297.863-4.785 3.02l-1.57 6.939c-.84 3.732-3.902 6.09-7.172 5.488l-11.356-2.116v-5.64c0-.025-.014-.046-.015-.071 1.271-.138 2.678-.52 3.714-1.447l2.824-2.529c1.246-1.102 1.789-3.172 1.203-4.725-.793-2.082-2.984-3.229-6.176-3.229h-11.101c-3.191 0-5.383 1.146-6.176 3.229-.586 1.547-.047 3.607 1.188 4.711l2.84 2.545c1.036.925 2.443 1.306 3.714 1.445-.001.025-.015.046-.015.071v5.939l-10.691 1.969c-3.074.559-5.977-1.508-7.008-4.906l-2.473-8.162c-.641-2.111-2.863-3.311-4.988-2.668-2.113.641-3.309 2.873-2.668 4.988l2.473 8.162c1.903 6.289 7.375 10.478 13.355 10.643v8.035c0 8.822 7.176 16 16 16s16-7.178 16-16v-8.212c6.642.161 12.714-4.623 14.332-11.755l1.57-6.939c.489-2.154-.863-4.297-3.019-4.785zm-28.883 39.691c-4.41 0-8-3.588-8-8v-9.19l4-.737v9.927c0 2.209 1.789 4 4 4s4-1.791 4-4v-10.223l4 .745v9.478c0 4.412-3.59 8-8 8zm-20-56c0-2.209 1.791-4 4-4s4 1.791 4 4-1.791 4-4 4-4-1.791-4-4zm36 4c-2.209 0-4-1.791-4-4s1.791-4 4-4 4 1.791 4 4-1.791 4-4 4zm94 0c-7.719 0-14 6.281-14 14s6.281 14 14 14 14-6.281 14-14-6.281-14-14-14zm0 20c-3.309 0-6-2.691-6-6s2.691-6 6-6 6 2.691 6 6-2.691 6-6 6zm14 52c0 2.209-1.791 4-4 4s-4-1.791-4-4 1.791-4 4-4 4 1.791 4 4zm32-28c0 2.209-1.789 4-4 4h-4v4c0 2.209-1.789 4-4 4s-4-1.791-4-4v-4h-4c-2.211 0-4-1.791-4-4s1.789-4 4-4h4v-4c0-2.209 1.789-4 4-4s4 1.791 4 4v4h4c2.211 0 4 1.791 4 4zm-96.801-63.974c30.879 0 56-25.121 56-56s-25.121-56-56-56-56 25.121-56 56c0 7.118 1.387 13.904 3.819 20.173-1.12-.068-2.24-.157-3.358-.157h-7.32c-4.301 0-8.578.492-12.762 1.465-1.184-5.029-3.453-11.289-7.758-15.193-5.211-4.727-7.566-11.523-7.586-11.582-.508-1.52-1.875-2.588-3.473-2.717-1.582-.145-3.117.707-3.863 2.125-.102.195-10.211 19.443-14.402 27.828-3.926 7.85-.438 18.646 2.078 24.537-5.617 8.954-8.574 19.228-8.574 29.851v95.645c0 2.209 1.789 4 4 4s4-1.791 4-4v-64c0-20.223 19.828-23.896 20.656-24.041 1.93-.32 3.344-1.99 3.344-3.945v-7.996c0-6.613 5.383-11.992 12-11.992s12 5.379 12 11.992c0 2.209 1.789 4 4 4s4-1.791 4-4c0-6.613 5.383-11.992 12-11.992s12 5.379 12 11.992v7.996c0 1.945 1.414 3.611 3.328 3.943.844.146 20.672 3.82 20.672 24.043v64c0 2.209 1.789 4 4 4s4-1.791 4-4v-95.645c0-7.02-1.326-13.987-3.859-20.485 1.018.055 2.026.155 3.058.155zm0-104c26.469 0 48 21.533 48 48s-21.531 48-48 48-48-21.533-48-48 21.531-48 48-48zm-7.199 124.33v10.27c-4.83-5.242-10.99-8.33-16-9.786v-4.822c0-11.023-8.973-19.992-20-19.992-6.535 0-12.348 3.148-16 8.01-3.652-4.861-9.465-8.01-16-8.01-11.027 0-20 8.969-20 19.992v4.822c-5.01 1.456-11.17 4.543-16 9.786v-10.27c0-9.764 2.914-19.182 8.422-27.236.805-1.174.922-2.686.312-3.971-3.031-6.396-5.434-14.904-3.082-19.602 2.559-5.117 7.355-14.348 10.691-20.734 1.512 2.426 3.527 5.09 6.102 7.426 2.785 2.525 5.055 8.08 6.066 14.859.176 1.158.848 2.184 1.84 2.803 1 .621 2.223.771 3.328.418 4.754-1.512 9.688-2.277 14.66-2.277h7.32c2.506 0 5.023.243 7.514.638 7.733 12.912 20.483 22.457 35.569 25.901 3.404 6.719 5.258 14.194 5.258 21.775zm26.086-40.834c.84 2.043-.137 4.381-2.18 5.219-5.305 2.18-10.926 3.285-16.707 3.285-2.211 0-4.062-1.791-4.062-4s1.73-4 3.941-4h.121c4.734 0 9.332-.902 13.668-2.684 2.035-.844 4.383.133 5.219 2.18zm-30.609 2.969c-.645 1.535-2.129 2.459-3.691 2.459-.516 0-1.039-.102-1.543-.312-5.348-2.236-10.137-5.459-14.234-9.58-1.559-1.566-1.551-4.098.016-5.656s4.098-1.555 5.656.016c3.355 3.373 7.273 6.012 11.648 7.842 2.038.85 2.999 3.193 2.148 5.231zm52.316-21.465c-2.234 5.338-5.465 10.123-9.59 14.223-.781.775-1.801 1.162-2.82 1.162-1.027 0-2.055-.395-2.84-1.182-1.555-1.566-1.547-4.1.02-5.656 3.383-3.357 6.023-7.273 7.855-11.641.852-2.037 3.188-2.994 5.234-2.143 2.036.854 2.996 3.198 2.141 5.237zm-76.07 1.924c-.5.205-1.016.303-1.523.303-1.57 0-3.062-.934-3.699-2.479-2.191-5.316-3.301-10.953-3.301-16.748 0-2.209 1.789-4.043 4-4.043s4 1.75 4 3.959v.084c0 4.746.906 9.355 2.699 13.701.839 2.043-.133 4.381-2.176 5.223zm16.515-54.381c-.844-2.041.125-4.381 2.168-5.225 5.328-2.201 10.98-3.318 16.793-3.318 2.211 0 4.02 1.791 4.02 4s-1.77 4-3.98 4h-.039c-4.762 0-9.383.912-13.738 2.713-.5.205-1.016.305-1.527.305-1.572-.001-3.06-.932-3.697-2.475zm52.235 21.687c-.844-2.041.125-4.381 2.164-5.227 2.035-.836 4.383.121 5.227 2.164 2.215 5.342 3.336 11.004 3.336 16.832 0 2.209-1.789 4.082-4 4.082s-4-1.707-4-3.916v-.166c-.001-4.771-.919-9.404-2.727-13.769zm-21.629-24.719c.852-2.039 3.195-3.008 5.23-2.158 5.348 2.223 10.145 5.436 14.25 9.549 1.562 1.562 1.562 4.096 0 5.656-.781.779-1.805 1.17-2.828 1.17s-2.047-.391-2.828-1.174c-3.367-3.367-7.289-5.996-11.664-7.814-2.039-.848-3.008-3.188-2.16-5.229zm-52.274 21.573c2.23-5.348 5.445-10.141 9.562-14.242 1.566-1.566 4.098-1.555 5.656.008 1.559 1.564 1.555 4.098-.008 5.656-3.371 3.359-6.004 7.281-7.828 11.656-.641 1.537-2.125 2.463-3.691 2.463-.516 0-1.035-.1-1.539-.311-2.038-.849-3.003-3.191-2.152-5.23zm-52.187 44.191c-1.305 1.307-.223 5.438.75 7.383.988 1.977.188 4.379-1.789 5.367-.574.287-1.184.422-1.785.422-1.469 0-2.879-.809-3.582-2.211-.539-1.082-5.121-10.748.75-16.617 1.562-1.562 4.094-1.562 5.656 0s1.562 4.094 0 5.656zm65.191-36.537c-.492 1.514-.039 3.174 1.152 4.229l11.445 10.15-3.297 14.939c-.344 1.553.27 3.162 1.555 4.098 1.293.938 3.004 1.02 4.379.213l13.192-7.754 13.191 7.754c.629.369 1.328.551 2.027.551.828 0 1.652-.256 2.352-.764 1.285-.936 1.898-2.545 1.555-4.098l-3.297-14.939 11.445-10.15c1.191-1.055 1.645-2.715 1.152-4.229s-1.832-2.59-3.418-2.744l-15.227-1.482-6.113-14.025c-.637-1.457-2.078-2.4-3.668-2.4s-3.031.943-3.668 2.4l-6.113 14.025-15.227 1.482c-1.585.154-2.925 1.23-3.417 2.744z" fill="url(#SVGID_1_)" data-original="url(#SVGID_1_)"/></g></g></svg>
