<?xml version="1.0"?>
<svg xmlns="http://www.w3.org/2000/svg" xmlns:xlink="http://www.w3.org/1999/xlink" xmlns:svgjs="http://svgjs.com/svgjs" version="1.1" width="512" height="512" x="0" y="0" viewBox="0 0 512 512" style="enable-background:new 0 0 512 512" xml:space="preserve" class=""><g><linearGradient xmlns="http://www.w3.org/2000/svg" id="New_Gradient_Swatch_2" gradientUnits="userSpaceOnUse" x1="256" x2="256" y1="18.239" y2="447.007"><stop stop-opacity="1" stop-color="#118acf" offset="0"/><stop stop-opacity="1" stop-color="#961bff" offset="1"/></linearGradient><g xmlns="http://www.w3.org/2000/svg" fill="url(#New_Gradient_Swatch_2)"><path d="m456 326.927 29.743 8.748 4.514-15.35-34.257-10.075v-108.5l34.257-10.076-4.514-15.35-29.743 8.749v-41.073h-16v45.779l-32 9.412v-68.928l32-22.589v20.326h16v-31.62l36.613-25.844-9.226-13.072-133.926 94.536h-186.922l-133.926-94.536-9.226 13.072 36.613 25.844v88.693l-29.743-8.748-4.514 15.35 34.257 10.076v108.5l-34.257 10.074 4.514 15.35 29.743-8.748v41.073h16v-45.779l32-9.412v68.928l-32 22.589v-20.326h-16v31.62l-36.613 25.844 9.226 13.072 112-79.059-9.226-13.071-11.387 8.037v-62.343l32-9.411v21.311h16v-88h48v48h-32v16h32v16h16v-16h48v16h16v-16h48v24h16v-21.308l32 9.411v62.34l-11.387-8.037-9.226 13.071 112 79.059 9.226-13.072-36.613-25.844zm-384-21.383v-99.087l13.743 4.043 4.514-15.35-18.257-5.371v-82.1l80 56.471v49.163l-32-9.413v-43.9h-16v136.132zm48-14.118v-70.852l32 9.412v52.028zm48-75.426v-48h48v16h16v-16h48v48h-48v-16h-16v16zm64 64v-48h48v48zm64 0v-48h32v-16h-32v-48h48v112zm112 32.809 13.743 4.042 4.514-15.35-18.257-5.369v-16.132h-16v11.426l-32-9.412v-117.869l32-22.588v62.343l-18.257 5.37 4.514 15.349 13.743-4.045v43.426h16v-48.132l32-9.412v197.87l-32-22.589z" fill=""/><path d="m328 328h-144a32.036 32.036 0 0 0 -32 32v48a32.036 32.036 0 0 0 32 32h31.083a32.828 32.828 0 0 0 30.627-20.735l6.747-16.866a3.816 3.816 0 0 1 7.086 0l6.747 16.866a32.828 32.828 0 0 0 30.627 20.735h31.083a32.036 32.036 0 0 0 32-32v-48a32.036 32.036 0 0 0 -32-32zm16 80a16.019 16.019 0 0 1 -16 16h-31.083a16.9 16.9 0 0 1 -15.772-10.678l-6.745-16.865a19.816 19.816 0 0 0 -36.8 0l-6.746 16.865a16.9 16.9 0 0 1 -15.771 10.678h-31.083a16.019 16.019 0 0 1 -16-16v-48a16.019 16.019 0 0 1 16-16h144a16.019 16.019 0 0 1 16 16z" fill=""/></g></g></svg>
