<?xml version="1.0"?>
<svg xmlns="http://www.w3.org/2000/svg" xmlns:xlink="http://www.w3.org/1999/xlink" xmlns:svgjs="http://svgjs.com/svgjs" version="1.1" width="512" height="512" x="0" y="0" viewBox="0 0 512 512" style="enable-background:new 0 0 512 512" xml:space="preserve" class=""><g><linearGradient xmlns="http://www.w3.org/2000/svg" id="New_Gradient_Swatch_2" gradientUnits="userSpaceOnUse" x1="256" x2="256" y1="50.871" y2="469.044"><stop stop-opacity="1" stop-color="#118acf" offset="0"/><stop stop-opacity="1" stop-color="#961bff" offset="1"/></linearGradient><linearGradient xmlns="http://www.w3.org/2000/svg" xmlns:xlink="http://www.w3.org/1999/xlink" id="New_Gradient_Swatch_2-3" x1="196" x2="196" xlink:href="#New_Gradient_Swatch_2" y1="50.871" y2="469.044"/><linearGradient xmlns="http://www.w3.org/2000/svg" xmlns:xlink="http://www.w3.org/1999/xlink" id="New_Gradient_Swatch_2-4" x1="268" x2="268" xlink:href="#New_Gradient_Swatch_2" y1="50.871" y2="469.044"/><linearGradient xmlns="http://www.w3.org/2000/svg" xmlns:xlink="http://www.w3.org/1999/xlink" id="New_Gradient_Swatch_2-5" x1="324" x2="324" xlink:href="#New_Gradient_Swatch_2" y1="50.871" y2="469.044"/><linearGradient xmlns="http://www.w3.org/2000/svg" xmlns:xlink="http://www.w3.org/1999/xlink" id="New_Gradient_Swatch_2-6" x1="48" x2="48" xlink:href="#New_Gradient_Swatch_2" y1="50.871" y2="469.044"/><linearGradient xmlns="http://www.w3.org/2000/svg" xmlns:xlink="http://www.w3.org/1999/xlink" id="New_Gradient_Swatch_2-7" x1="96" x2="96" xlink:href="#New_Gradient_Swatch_2" y1="50.871" y2="469.044"/><linearGradient xmlns="http://www.w3.org/2000/svg" xmlns:xlink="http://www.w3.org/1999/xlink" id="New_Gradient_Swatch_2-8" x1="416" x2="416" xlink:href="#New_Gradient_Swatch_2" y1="50.871" y2="469.044"/><linearGradient xmlns="http://www.w3.org/2000/svg" xmlns:xlink="http://www.w3.org/1999/xlink" id="New_Gradient_Swatch_2-9" x1="368" x2="368" xlink:href="#New_Gradient_Swatch_2" y1="50.871" y2="469.044"/><linearGradient xmlns="http://www.w3.org/2000/svg" xmlns:xlink="http://www.w3.org/1999/xlink" id="New_Gradient_Swatch_2-10" x1="464" x2="464" xlink:href="#New_Gradient_Swatch_2" y1="50.871" y2="469.044"/><linearGradient xmlns="http://www.w3.org/2000/svg" xmlns:xlink="http://www.w3.org/1999/xlink" id="New_Gradient_Swatch_2-11" x1="320" x2="320" xlink:href="#New_Gradient_Swatch_2" y1="50.871" y2="469.044"/><linearGradient xmlns="http://www.w3.org/2000/svg" xmlns:xlink="http://www.w3.org/1999/xlink" id="New_Gradient_Swatch_2-12" x1="144" x2="144" xlink:href="#New_Gradient_Swatch_2" y1="50.871" y2="469.044"/><linearGradient xmlns="http://www.w3.org/2000/svg" xmlns:xlink="http://www.w3.org/1999/xlink" id="New_Gradient_Swatch_2-13" x1="192" x2="192" xlink:href="#New_Gradient_Swatch_2" y1="50.871" y2="469.044"/><linearGradient xmlns="http://www.w3.org/2000/svg" xmlns:xlink="http://www.w3.org/1999/xlink" id="New_Gradient_Swatch_2-14" x1="240" x2="240" xlink:href="#New_Gradient_Swatch_2" y1="50.871" y2="469.044"/><linearGradient xmlns="http://www.w3.org/2000/svg" xmlns:xlink="http://www.w3.org/1999/xlink" id="New_Gradient_Swatch_2-15" x1="288" x2="288" xlink:href="#New_Gradient_Swatch_2" y1="50.871" y2="469.044"/><linearGradient xmlns="http://www.w3.org/2000/svg" xmlns:xlink="http://www.w3.org/1999/xlink" id="New_Gradient_Swatch_2-18" x1="128" x2="128" xlink:href="#New_Gradient_Swatch_2" y1="50.871" y2="469.044"/><linearGradient xmlns="http://www.w3.org/2000/svg" xmlns:xlink="http://www.w3.org/1999/xlink" id="New_Gradient_Swatch_2-19" x1="384" x2="384" xlink:href="#New_Gradient_Swatch_2" y1="50.871" y2="469.044"/><linearGradient xmlns="http://www.w3.org/2000/svg" xmlns:xlink="http://www.w3.org/1999/xlink" id="New_Gradient_Swatch_2-30" x1="272" x2="272" xlink:href="#New_Gradient_Swatch_2" y1="50.871" y2="469.044"/><linearGradient xmlns="http://www.w3.org/2000/svg" xmlns:xlink="http://www.w3.org/1999/xlink" id="New_Gradient_Swatch_2-31" x1="224" x2="224" xlink:href="#New_Gradient_Swatch_2" y1="50.871" y2="469.044"/><linearGradient xmlns="http://www.w3.org/2000/svg" xmlns:xlink="http://www.w3.org/1999/xlink" id="New_Gradient_Swatch_2-39" x1="64" x2="64" xlink:href="#New_Gradient_Swatch_2" y1="50.871" y2="469.044"/><linearGradient xmlns="http://www.w3.org/2000/svg" xmlns:xlink="http://www.w3.org/1999/xlink" id="New_Gradient_Swatch_2-40" x1="32" x2="32" xlink:href="#New_Gradient_Swatch_2" y1="50.871" y2="469.044"/><linearGradient xmlns="http://www.w3.org/2000/svg" xmlns:xlink="http://www.w3.org/1999/xlink" id="New_Gradient_Swatch_2-42" x1="448" x2="448" xlink:href="#New_Gradient_Swatch_2" y1="50.871" y2="469.044"/><linearGradient xmlns="http://www.w3.org/2000/svg" xmlns:xlink="http://www.w3.org/1999/xlink" id="New_Gradient_Swatch_2-43" x1="480" x2="480" xlink:href="#New_Gradient_Swatch_2" y1="50.871" y2="469.044"/><path xmlns="http://www.w3.org/2000/svg" d="m416 182.1a32.087 32.087 0 0 0 -16-27.712l-128-73.9a32.089 32.089 0 0 0 -32 0l-128 73.9a32.09 32.09 0 0 0 -16 27.712v147.8a32.087 32.087 0 0 0 16 27.712l128 73.9a32.1 32.1 0 0 0 32 0l128-73.9a32.09 32.09 0 0 0 16-27.712zm-16 147.8a16.042 16.042 0 0 1 -8 13.856l-128 73.9a16.044 16.044 0 0 1 -16 0l-128-73.9a16.042 16.042 0 0 1 -8-13.856v-147.8a16.042 16.042 0 0 1 8-13.856l128-73.9a16.046 16.046 0 0 1 16 0l128 73.9a16.042 16.042 0 0 1 8 13.856z" fill="url(#New_Gradient_Swatch_2)" data-original="url(#New_Gradient_Swatch_2)"/><path xmlns="http://www.w3.org/2000/svg" d="m374.275 173.857-106.275-61.357a24.074 24.074 0 0 0 -24 0l-106.275 61.357a24.068 24.068 0 0 0 -12 20.785v122.716a24.068 24.068 0 0 0 12 20.785l106.275 61.357a24.071 24.071 0 0 0 24 0l106.275-61.358a24.068 24.068 0 0 0 12-20.785v-122.715a24.068 24.068 0 0 0 -12-20.785zm-4 143.5a8.023 8.023 0 0 1 -4 6.929l-106.275 61.359a8.025 8.025 0 0 1 -8 0l-106.275-61.358a8.023 8.023 0 0 1 -4-6.929v-122.716a8.023 8.023 0 0 1 4-6.929l106.275-61.358a8.028 8.028 0 0 1 8 0l106.275 61.359a8.023 8.023 0 0 1 4 6.929z" fill="url(#New_Gradient_Swatch_2)" data-original="url(#New_Gradient_Swatch_2)"/><path xmlns="http://www.w3.org/2000/svg" d="m220 216a8 8 0 0 0 -8 8v40l-33.6-44.8a8 8 0 0 0 -14.4 4.8v64a8 8 0 0 0 16 0v-40l33.6 44.8a8 8 0 0 0 14.4-4.8v-64a8 8 0 0 0 -8-8z" fill="url(#New_Gradient_Swatch_2-3)" data-original="url(#New_Gradient_Swatch_2-3)"/><path xmlns="http://www.w3.org/2000/svg" d="m284 216h-32a8 8 0 0 0 -8 8v64a8 8 0 0 0 16 0v-24h16a8 8 0 0 0 0-16h-16v-16h24a8 8 0 0 0 0-16z" fill="url(#New_Gradient_Swatch_2-4)" data-original="url(#New_Gradient_Swatch_2-4)"/><path xmlns="http://www.w3.org/2000/svg" d="m340 216h-32a8 8 0 0 0 0 16h8v56a8 8 0 0 0 16 0v-56h8a8 8 0 0 0 0-16z" fill="url(#New_Gradient_Swatch_2-5)" data-original="url(#New_Gradient_Swatch_2-5)"/><path xmlns="http://www.w3.org/2000/svg" d="m64 24h-32a8 8 0 0 0 -8 8v48a8 8 0 0 0 8 8h32a8 8 0 0 0 8-8v-48a8 8 0 0 0 -8-8zm-8 48h-16v-32h16z" fill="url(#New_Gradient_Swatch_2-6)" data-original="url(#New_Gradient_Swatch_2-6)"/><path xmlns="http://www.w3.org/2000/svg" d="m88 24h16v64h-16z" fill="url(#New_Gradient_Swatch_2-7)" data-original="url(#New_Gradient_Swatch_2-7)"/><path xmlns="http://www.w3.org/2000/svg" d="m408 24h16v64h-16z" fill="url(#New_Gradient_Swatch_2-8)" data-original="url(#New_Gradient_Swatch_2-8)"/><path xmlns="http://www.w3.org/2000/svg" d="m352 88h32a8 8 0 0 0 8-8v-48a8 8 0 0 0 -8-8h-32a8 8 0 0 0 -8 8v48a8 8 0 0 0 8 8zm8-48h16v32h-16z" fill="url(#New_Gradient_Swatch_2-9)" data-original="url(#New_Gradient_Swatch_2-9)"/><path xmlns="http://www.w3.org/2000/svg" d="m480 24h-32a8 8 0 0 0 -8 8v48a8 8 0 0 0 8 8h32a8 8 0 0 0 8-8v-48a8 8 0 0 0 -8-8zm-8 48h-16v-32h16z" fill="url(#New_Gradient_Swatch_2-10)" data-original="url(#New_Gradient_Swatch_2-10)"/><path xmlns="http://www.w3.org/2000/svg" d="m312 24h16v56h-16z" fill="url(#New_Gradient_Swatch_2-11)" data-original="url(#New_Gradient_Swatch_2-11)"/><path xmlns="http://www.w3.org/2000/svg" d="m128 88h32a8 8 0 0 0 8-8v-48a8 8 0 0 0 -8-8h-32a8 8 0 0 0 -8 8v48a8 8 0 0 0 8 8zm8-48h16v32h-16z" fill="url(#New_Gradient_Swatch_2-12)" data-original="url(#New_Gradient_Swatch_2-12)"/><path xmlns="http://www.w3.org/2000/svg" d="m184 24h16v56h-16z" fill="url(#New_Gradient_Swatch_2-13)" data-original="url(#New_Gradient_Swatch_2-13)"/><path xmlns="http://www.w3.org/2000/svg" d="m232 40h16v16h16v-24a8 8 0 0 0 -8-8h-32a8 8 0 0 0 -8 8v32h16z" fill="url(#New_Gradient_Swatch_2-14)" data-original="url(#New_Gradient_Swatch_2-14)"/><path xmlns="http://www.w3.org/2000/svg" d="m280 24h16v40h-16z" fill="url(#New_Gradient_Swatch_2-15)" data-original="url(#New_Gradient_Swatch_2-15)"/><path xmlns="http://www.w3.org/2000/svg" d="m64 104h-32a8 8 0 0 0 -8 8v48a8 8 0 0 0 8 8h32a8 8 0 0 0 8-8v-48a8 8 0 0 0 -8-8zm-8 48h-16v-32h16z" fill="url(#New_Gradient_Swatch_2-6)" data-original="url(#New_Gradient_Swatch_2-6)"/><path xmlns="http://www.w3.org/2000/svg" d="m88 104h16v40h-16z" fill="url(#New_Gradient_Swatch_2-7)" data-original="url(#New_Gradient_Swatch_2-7)"/><path xmlns="http://www.w3.org/2000/svg" d="m120 104h16v16h-16z" fill="url(#New_Gradient_Swatch_2-18)" data-original="url(#New_Gradient_Swatch_2-18)"/><path xmlns="http://www.w3.org/2000/svg" d="m376 104h16v16h-16z" fill="url(#New_Gradient_Swatch_2-19)" data-original="url(#New_Gradient_Swatch_2-19)"/><path xmlns="http://www.w3.org/2000/svg" d="m408 104h16v40h-16z" fill="url(#New_Gradient_Swatch_2-8)" data-original="url(#New_Gradient_Swatch_2-8)"/><path xmlns="http://www.w3.org/2000/svg" d="m480 104h-32a8 8 0 0 0 -8 8v48a8 8 0 0 0 8 8h32a8 8 0 0 0 8-8v-48a8 8 0 0 0 -8-8zm-8 48h-16v-32h16z" fill="url(#New_Gradient_Swatch_2-10)" data-original="url(#New_Gradient_Swatch_2-10)"/><path xmlns="http://www.w3.org/2000/svg" d="m480 424h-32a8 8 0 0 0 -8 8v48a8 8 0 0 0 8 8h32a8 8 0 0 0 8-8v-48a8 8 0 0 0 -8-8zm-8 48h-16v-32h16z" fill="url(#New_Gradient_Swatch_2-10)" data-original="url(#New_Gradient_Swatch_2-10)"/><path xmlns="http://www.w3.org/2000/svg" d="m408 424h16v64h-16z" fill="url(#New_Gradient_Swatch_2-8)" data-original="url(#New_Gradient_Swatch_2-8)"/><path xmlns="http://www.w3.org/2000/svg" d="m88 424h16v64h-16z" fill="url(#New_Gradient_Swatch_2-7)" data-original="url(#New_Gradient_Swatch_2-7)"/><path xmlns="http://www.w3.org/2000/svg" d="m160 424h-32a8 8 0 0 0 -8 8v48a8 8 0 0 0 8 8h32a8 8 0 0 0 8-8v-48a8 8 0 0 0 -8-8zm-8 48h-16v-32h16z" fill="url(#New_Gradient_Swatch_2-12)" data-original="url(#New_Gradient_Swatch_2-12)"/><path xmlns="http://www.w3.org/2000/svg" d="m64 424h-32a8 8 0 0 0 -8 8v48a8 8 0 0 0 8 8h32a8 8 0 0 0 8-8v-48a8 8 0 0 0 -8-8zm-8 48h-16v-32h16z" fill="url(#New_Gradient_Swatch_2-6)" data-original="url(#New_Gradient_Swatch_2-6)"/><path xmlns="http://www.w3.org/2000/svg" d="m184 432h16v56h-16z" fill="url(#New_Gradient_Swatch_2-13)" data-original="url(#New_Gradient_Swatch_2-13)"/><path xmlns="http://www.w3.org/2000/svg" d="m384 424h-32a8 8 0 0 0 -8 8v48a8 8 0 0 0 8 8h32a8 8 0 0 0 8-8v-48a8 8 0 0 0 -8-8zm-8 48h-16v-32h16z" fill="url(#New_Gradient_Swatch_2-9)" data-original="url(#New_Gradient_Swatch_2-9)"/><path xmlns="http://www.w3.org/2000/svg" d="m312 432h16v56h-16z" fill="url(#New_Gradient_Swatch_2-11)" data-original="url(#New_Gradient_Swatch_2-11)"/><path xmlns="http://www.w3.org/2000/svg" d="m280 472h-16v-16h-16v24a8 8 0 0 0 8 8h32a8 8 0 0 0 8-8v-32h-16z" fill="url(#New_Gradient_Swatch_2-30)" data-original="url(#New_Gradient_Swatch_2-30)"/><path xmlns="http://www.w3.org/2000/svg" d="m216 448h16v40h-16z" fill="url(#New_Gradient_Swatch_2-31)" data-original="url(#New_Gradient_Swatch_2-31)"/><path xmlns="http://www.w3.org/2000/svg" d="m480 344h-32a8 8 0 0 0 -8 8v48a8 8 0 0 0 8 8h32a8 8 0 0 0 8-8v-48a8 8 0 0 0 -8-8zm-8 48h-16v-32h16z" fill="url(#New_Gradient_Swatch_2-10)" data-original="url(#New_Gradient_Swatch_2-10)"/><path xmlns="http://www.w3.org/2000/svg" d="m408 368h16v40h-16z" fill="url(#New_Gradient_Swatch_2-8)" data-original="url(#New_Gradient_Swatch_2-8)"/><path xmlns="http://www.w3.org/2000/svg" d="m376 392h16v16h-16z" fill="url(#New_Gradient_Swatch_2-19)" data-original="url(#New_Gradient_Swatch_2-19)"/><path xmlns="http://www.w3.org/2000/svg" d="m120 392h16v16h-16z" fill="url(#New_Gradient_Swatch_2-18)" data-original="url(#New_Gradient_Swatch_2-18)"/><path xmlns="http://www.w3.org/2000/svg" d="m88 368h16v40h-16z" fill="url(#New_Gradient_Swatch_2-7)" data-original="url(#New_Gradient_Swatch_2-7)"/><path xmlns="http://www.w3.org/2000/svg" d="m64 344h-32a8 8 0 0 0 -8 8v48a8 8 0 0 0 8 8h32a8 8 0 0 0 8-8v-48a8 8 0 0 0 -8-8zm-8 48h-16v-32h16z" fill="url(#New_Gradient_Swatch_2-6)" data-original="url(#New_Gradient_Swatch_2-6)"/><path xmlns="http://www.w3.org/2000/svg" d="m480 184h-32a8 8 0 0 0 -8 8v48a8 8 0 0 0 8 8h32a8 8 0 0 0 8-8v-48a8 8 0 0 0 -8-8zm-8 48h-16v-32h16z" fill="url(#New_Gradient_Swatch_2-10)" data-original="url(#New_Gradient_Swatch_2-10)"/><path xmlns="http://www.w3.org/2000/svg" d="m56 184h16v64h-16z" fill="url(#New_Gradient_Swatch_2-39)" data-original="url(#New_Gradient_Swatch_2-39)"/><path xmlns="http://www.w3.org/2000/svg" d="m24 184h16v64h-16z" fill="url(#New_Gradient_Swatch_2-40)" data-original="url(#New_Gradient_Swatch_2-40)"/><path xmlns="http://www.w3.org/2000/svg" d="m64 264h-32a8 8 0 0 0 -8 8v48a8 8 0 0 0 8 8h32a8 8 0 0 0 8-8v-48a8 8 0 0 0 -8-8zm-8 48h-16v-32h16z" fill="url(#New_Gradient_Swatch_2-6)" data-original="url(#New_Gradient_Swatch_2-6)"/><path xmlns="http://www.w3.org/2000/svg" d="m440 264h16v64h-16z" fill="url(#New_Gradient_Swatch_2-42)" data-original="url(#New_Gradient_Swatch_2-42)"/><path xmlns="http://www.w3.org/2000/svg" d="m472 264h16v64h-16z" fill="url(#New_Gradient_Swatch_2-43)" data-original="url(#New_Gradient_Swatch_2-43)"/></g></svg>
