<?xml version="1.0"?>
<svg xmlns="http://www.w3.org/2000/svg" xmlns:xlink="http://www.w3.org/1999/xlink" xmlns:svgjs="http://svgjs.com/svgjs" version="1.1" width="512" height="512" x="0" y="0" viewBox="0 0 512 512" style="enable-background:new 0 0 512 512" xml:space="preserve" class=""><g><linearGradient xmlns="http://www.w3.org/2000/svg" id="New_Gradient_Swatch_2" gradientUnits="userSpaceOnUse" x1="256" x2="256" y1="12.624" y2="455.471"><stop stop-opacity="1" stop-color="#118acf" offset="0"/><stop stop-opacity="1" stop-color="#961bff" offset="1"/></linearGradient><linearGradient xmlns="http://www.w3.org/2000/svg" xmlns:xlink="http://www.w3.org/1999/xlink" id="New_Gradient_Swatch_2-2" x1="96" x2="96" xlink:href="#New_Gradient_Swatch_2" y1="12.624" y2="455.471"/><linearGradient xmlns="http://www.w3.org/2000/svg" xmlns:xlink="http://www.w3.org/1999/xlink" id="New_Gradient_Swatch_2-3" x1="416" x2="416" xlink:href="#New_Gradient_Swatch_2" y1="12.624" y2="455.471"/><linearGradient xmlns="http://www.w3.org/2000/svg" xmlns:xlink="http://www.w3.org/1999/xlink" id="New_Gradient_Swatch_2-6" x1="88" x2="88" xlink:href="#New_Gradient_Swatch_2" y1="12.624" y2="455.471"/><linearGradient xmlns="http://www.w3.org/2000/svg" xmlns:xlink="http://www.w3.org/1999/xlink" id="New_Gradient_Swatch_2-8" x1="152" x2="152" xlink:href="#New_Gradient_Swatch_2" y1="12.624" y2="455.471"/><linearGradient xmlns="http://www.w3.org/2000/svg" xmlns:xlink="http://www.w3.org/1999/xlink" id="New_Gradient_Swatch_2-9" x1="424" x2="424" xlink:href="#New_Gradient_Swatch_2" y1="12.624" y2="455.471"/><linearGradient xmlns="http://www.w3.org/2000/svg" xmlns:xlink="http://www.w3.org/1999/xlink" id="New_Gradient_Swatch_2-10" x1="360" x2="360" xlink:href="#New_Gradient_Swatch_2" y1="12.624" y2="455.471"/><path xmlns="http://www.w3.org/2000/svg" d="m336 216h-.006a7.986 7.986 0 0 0 -4.224-7.058c-3.095-1.718-71.885-39.935-71.885-39.935a8 8 0 0 0 -7.77 0l-71.79 39.884c-.126.068-.254.139-.382.215a7.991 7.991 0 0 0 -3.937 6.894h-.006v80a8 8 0 0 0 4.03 6.945l.1.055 71.988 39.993a8 8 0 0 0 7.77 0l72-40a8 8 0 0 0 4.112-6.993zm-80-30.849 55.526 30.849-55.526 30.85-55.526-30.85zm-64 44.449 56 31.111v61.7l-56-31.111zm72 92.8v-61.7l56-31.1v61.7z" fill="url(#New_Gradient_Swatch_2)" data-original="url(#New_Gradient_Swatch_2)"/><path xmlns="http://www.w3.org/2000/svg" d="m20.03 150.946.1.054 71.988 39.993a8 8 0 0 0 7.77 0l72-40a8 8 0 0 0 4.112-6.993v-80h-.006a7.986 7.986 0 0 0 -4.226-7.059c-3.119-1.731-71.883-39.934-71.883-39.934a8 8 0 0 0 -7.77 0l-71.79 39.883c-.126.068-.254.139-.382.215a7.991 7.991 0 0 0 -3.937 6.895h-.006v80a8 8 0 0 0 4.03 6.946zm11.97-73.346 56 31.111v61.7l-56-31.119zm72 92.8v-61.7l56-31.1v61.7zm-8-137.25 55.526 30.85-55.526 30.849-55.526-30.849z" fill="url(#New_Gradient_Swatch_2-2)" data-original="url(#New_Gradient_Swatch_2-2)"/><path xmlns="http://www.w3.org/2000/svg" d="m495.994 64a7.991 7.991 0 0 0 -3.937-6.894c-.129-.076-.256-.147-.382-.215l-71.79-39.884a8 8 0 0 0 -7.77 0s-68.841 38.246-71.887 39.937a7.983 7.983 0 0 0 -4.222 7.056h-.006v80a8 8 0 0 0 4.115 6.993l72 40a8 8 0 0 0 7.77 0l71.988-39.993.1-.054a8 8 0 0 0 4.027-6.946v-80zm-79.994-30.85 55.526 30.85-55.526 30.849-55.526-30.849zm-64 44.45 56 31.112v61.7l-56-31.112zm72 92.8v-61.7l56-31.1v61.7z" fill="url(#New_Gradient_Swatch_2-3)" data-original="url(#New_Gradient_Swatch_2-3)"/><path xmlns="http://www.w3.org/2000/svg" d="m174.944 364.027a7.964 7.964 0 0 0 -3.176-3.087c-3.119-1.731-71.883-39.934-71.883-39.934a8 8 0 0 0 -7.77 0l-71.79 39.884c-.126.068-.254.139-.382.215a7.991 7.991 0 0 0 -3.937 6.895h-.006v80a8 8 0 0 0 4.03 6.946l.1.054 71.988 39.993a8 8 0 0 0 7.77 0l72-40a8 8 0 0 0 4.112-6.993v-80h-.006a7.954 7.954 0 0 0 -1.05-3.973zm-78.944-26.877 55.526 30.85-55.526 30.849-55.526-30.849zm-64 44.45 56 31.111v61.7l-56-31.119zm72 92.8v-61.7l56-31.1v61.7z" fill="url(#New_Gradient_Swatch_2-2)" data-original="url(#New_Gradient_Swatch_2-2)"/><path xmlns="http://www.w3.org/2000/svg" d="m492.057 361.105c-.129-.076-.256-.147-.382-.215l-71.79-39.884a8 8 0 0 0 -7.77 0s-68.841 38.246-71.887 39.937a7.983 7.983 0 0 0 -4.222 7.057h-.006v80a8 8 0 0 0 4.115 6.993l72 40a8 8 0 0 0 7.77 0l71.988-39.993.1-.054a8 8 0 0 0 4.027-6.946v-80h-.006a7.991 7.991 0 0 0 -3.937-6.895zm-76.057-23.955 55.526 30.85-55.526 30.849-55.526-30.849zm-64 44.45 56 31.112v61.7l-56-31.112zm72 92.8v-61.7l56-31.1v61.7z" fill="url(#New_Gradient_Swatch_2-3)" data-original="url(#New_Gradient_Swatch_2-3)"/><path xmlns="http://www.w3.org/2000/svg" d="m48 208v96h16v-40h64v-16h-64v-40z" fill="url(#New_Gradient_Swatch_2-6)" data-original="url(#New_Gradient_Swatch_2-6)"/><path xmlns="http://www.w3.org/2000/svg" d="m248 120h16v-24h56v-16h-128v16h56z" fill="url(#New_Gradient_Swatch_2)" data-original="url(#New_Gradient_Swatch_2)"/><path xmlns="http://www.w3.org/2000/svg" d="m144 248h16v16h-16z" fill="url(#New_Gradient_Swatch_2-8)" data-original="url(#New_Gradient_Swatch_2-8)"/><path xmlns="http://www.w3.org/2000/svg" d="m464 304v-96h-16v40h-64v16h64v40z" fill="url(#New_Gradient_Swatch_2-9)" data-original="url(#New_Gradient_Swatch_2-9)"/><path xmlns="http://www.w3.org/2000/svg" d="m352 248h16v16h-16z" fill="url(#New_Gradient_Swatch_2-10)" data-original="url(#New_Gradient_Swatch_2-10)"/><g xmlns="http://www.w3.org/2000/svg" fill="url(#New_Gradient_Swatch_2)"><path d="m248 136h16v16h-16z" fill=""/><path d="m264 392.001h-16v24h-56v16h128v-16h-56z" fill=""/><path d="m248 360.001h16v16h-16z" fill=""/></g></g></svg>
