<svg xmlns="http://www.w3.org/2000/svg" version="1.1" xmlns:xlink="http://www.w3.org/1999/xlink" xmlns:svgjs="http://svgjs.com/svgjs" width="512" height="512" x="0" y="0" viewBox="0 0 48 48" style="enable-background:new 0 0 512 512" xml:space="preserve" class=""><g><path d="M36.71 23A10.51 10.51 0 0 0 28.5 6H27V1h-4v5h-4V1h-4v5H7v6h6v24H7v6h8v5h4v-5h4v5h4v-5h3.5c10.1 0 14.38-13 6.21-19zM19 12c9.82 0 11-.43 12.68 1.32A4.5 4.5 0 0 1 28.5 21H19zm11.5 24H19v-9h11.5a4.46 4.46 0 0 1 3.18 1.32A4.5 4.5 0 0 1 30.5 36z" data-name="Bitcoin Logo" fill="#ffffff" data-original="#000000" class=""></path></g></svg>